<svg width="1920" height="822" viewBox="0 0 1920 822" fill="none" xmlns="http://www.w3.org/2000/svg">
<rect y="1" width="1920" height="821" fill="white"/>
<mask id="mask0_793_1120" style="mask-type:alpha" maskUnits="userSpaceOnUse" x="-5" y="1" width="1920" height="821">
<rect x="-5" y="1" width="1920" height="821" fill="white"/>
</mask>
<g mask="url(#mask0_793_1120)">
<path fill-rule="evenodd" clip-rule="evenodd" d="M-246.474 -217.642C-246.553 -240.058 -278.185 -265.266 -291.697 -278.262C-318.414 -303.966 -346.2 -327.703 -373.73 -351.819C-401.259 -375.934 -428.862 -399.985 -455.113 -426.46C-472.158 -443.647 -492.186 -463.003 -503.745 -487.544C-528.371 -539.842 -450.728 -532.076 -430.617 -533.22C-379.453 -536.142 -320.767 -534.808 -272.809 -562.042C-244.18 -578.3 -232.764 -605.567 -238.913 -645.307C-240.895 -658.231 -246.761 -673.103 -241.792 -685.693C-236.485 -699.14 -224.276 -706.9 -214.143 -712.104C-177.185 -731.062 -134.692 -733.258 -95.5883 -735.638C-53.4223 -738.253 -10.86 -737.488 31.0086 -737.69C48.7619 -737.775 67.303 -746.189 84.209 -753.027C106.372 -761.989 128.273 -772.056 150.252 -781.79C198.607 -803.154 248.433 -825.655 299.592 -831.081C331.63 -834.48 366.646 -829.885 391.535 -800.317C404.031 -785.471 410.571 -763.401 417.795 -743.796C426.541 -720.112 434.939 -696.199 444.249 -672.887C474.241 -597.807 517.061 -524.44 586.563 -520.753C597.077 -520.197 607.403 -522.008 617.868 -522.348C624.532 -522.557 630.463 -520.433 632.941 -511.235C639.169 -488.165 619.592 -451.746 611.565 -433.442C593.99 -393.376 574.171 -355.107 555.605 -315.844C543.322 -289.878 522.061 -254.394 521.838 -222.846C521.64 -194.736 549.981 -174.418 565.411 -160.572C579.869 -147.609 606.065 -129.468 607.651 -103.097C608.419 -90.3106 602.027 -79.7137 595.353 -71.4899C583.655 -57.1081 570.177 -46.9623 559.653 -30.5539C542.395 -3.63369 527.977 33.4061 530.32 69.6811C531.946 94.8167 542.817 111.277 556.646 127.012C562.458 133.628 567.175 138.309 567.482 149.049C567.977 166.105 562.914 184.154 558.742 199.968C543.818 256.56 522.621 311.283 499.04 362.378C487.258 387.912 474.529 413.368 458.906 435.15C448.674 449.454 434.875 466.477 419.267 466.457C401.197 466.457 382.076 457.854 364.511 451.421C331.705 439.4 299.295 425.501 267.014 411.244C192.361 378.257 118.409 342.599 45.1597 304.269C-6.4353 277.224 -59.1254 250.141 -107.634 214.186C-117.094 207.125 -126.023 198.893 -134.301 189.6C-143.145 179.84 -154.12 175.473 -165.249 172.217C-234.32 152.011 -309.99 167.524 -379.349 177.251C-396.953 179.715 -414.558 182.193 -432.212 183.919C-447.389 185.403 -465.558 189.659 -480.309 183.265C-509.374 170.681 -483.966 124.299 -473.223 105.4C-435.403 38.8582 -386.607 -17.4403 -341.379 -74.9154C-319.875 -102.287 -298.208 -129.586 -277.873 -158.507C-267.284 -173.542 -246.404 -197.991 -246.474 -217.642Z" stroke="#5BE7C3" stroke-width="2"/>
<path fill-rule="evenodd" clip-rule="evenodd" d="M-233.44 -221.421C-245.033 -245.141 -265.372 -262.673 -282.255 -279.172C-306.55 -302.924 -331.609 -325.356 -356.291 -348.436C-379.63 -370.26 -403.018 -392.333 -424.631 -417.118C-437.81 -432.232 -454.346 -450.306 -460.588 -472.659C-474.129 -521.111 -401.283 -513.76 -383.299 -515.028C-338.59 -518.165 -287.902 -518.883 -246.54 -544.393C-220.713 -560.324 -210.102 -586.742 -215.611 -623.419C-217.514 -636.109 -220.946 -646.943 -216.602 -659.567C-211.579 -674.178 -200.027 -683.287 -189.436 -689.717C-156.26 -709.862 -117.045 -714.142 -81.083 -717.703C-43.9307 -721.382 -5.22158 -723.976 30.7357 -721.284C45.1147 -720.212 61.6654 -726.296 75.8956 -730.961C97.7913 -738.149 119.464 -746.441 141.25 -754.152C185.528 -769.834 230.955 -784.941 277.018 -786.66C310.273 -787.901 344.946 -781.171 372.613 -755.158C400.652 -728.779 413.092 -687.887 428.641 -649.014C455.495 -581.809 491.765 -500.097 553.892 -485.898C563.313 -483.742 572.366 -484.911 581.777 -484.382C586.616 -484.114 592.125 -483.265 594.579 -476.972C600.951 -460.636 583.493 -430.768 577.617 -418.255C561.384 -383.675 543.132 -350.788 526.121 -316.875C512.609 -289.947 495.484 -260.026 490.258 -228.106C483.916 -189.371 525.352 -161.809 539.924 -134.534C565.187 -87.2391 517.325 -60.2916 493.728 -37.7416C466.631 -11.8526 444.265 35.3774 468.555 75.4328C477.847 90.7493 489.281 99.8777 493.431 119.866C499.921 151.126 495.013 186.85 489.747 217.75C481.814 264.203 469.259 310.152 452.193 352.135C439.966 382.193 419.682 429.325 389.977 425.79C369.98 423.431 349.651 414.812 330.18 407.193C301.025 395.791 272.238 382.794 243.604 369.294C177.505 338.217 112.136 303.951 48.05 266.261C4.32308 240.536 -117.65 135.405 -126.828 131.654C-154.193 120.48 -185.306 122.447 -213.518 124.179C-251.047 126.479 -288.388 132.438 -325.699 137.96C-343.459 140.573 -361.309 143.769 -379.164 145.056C-391.872 145.971 -408.561 146.755 -419.693 137.012C-441.42 118.004 -417.213 74.5115 -407.203 56.1108C-376.536 -0.299958 -337.742 -49.1505 -301.369 -99.0989C-283.519 -123.622 -265.396 -148.106 -249.193 -174.596C-242.658 -185.293 -226.276 -206.771 -233.44 -221.421Z" stroke="#5ACEF2" stroke-width="2"/>
<path fill-rule="evenodd" clip-rule="evenodd" d="M-217.403 -233.586C-249.062 -281.052 -292.757 -316.353 -330.469 -355.995C-349.397 -375.898 -368.444 -396.343 -384.769 -420.049C-393.262 -432.377 -403.866 -447.965 -405.502 -465.149C-409.874 -511.118 -344.217 -504.902 -324.565 -506.647C-286.57 -510.032 -243.648 -512.601 -209.178 -536.059C-188.119 -550.4 -177.748 -573.936 -181.684 -604.872C-183.429 -618.598 -186.146 -630.258 -181.684 -643.736C-177.163 -657.39 -167.743 -667.024 -158.205 -674.247C-130.795 -695.019 -96.7316 -701.659 -65.871 -706.607C-29.6683 -712.37 6.80657 -714.62 43.2592 -713.339C75.1858 -712.235 106.959 -724.66 138.132 -732.85C179.428 -743.693 221.473 -753.164 263.731 -751.733C297.105 -750.595 330.742 -741.661 359.272 -717.915C388.264 -693.731 405.695 -657.534 421.41 -618.474C445.167 -559.426 474.773 -480.3 526.891 -457.874C534.472 -454.606 541.536 -454.246 549.354 -453.678C553.152 -453.403 558.055 -453.318 559.938 -448.096C564.47 -435.52 547.718 -411.141 543.043 -402.644C528.121 -375.519 511.945 -349.616 496.651 -322.85C482.373 -297.863 466.821 -271.823 457.952 -242.541C443.838 -195.905 488.961 -168.636 487.697 -124.197C486.909 -96.608 466.876 -76.8231 451.011 -63.1364C431.479 -46.3058 403.355 -35.2401 393.578 -4.52676C386.296 18.3498 397.723 31.6639 406.523 49.0239C421.435 78.4366 422.451 118.307 420.899 152.354C418.807 198.362 410.632 245.05 396.717 287.338C390.411 306.509 382.687 326.451 371.314 341.34C360.66 355.295 350.577 358.87 336.339 356.014C292.752 347.255 248.744 322.843 206.947 301.038C154.432 273.639 102.641 243.389 52.396 209.356C18.1345 186.146 -16.9004 161.589 -46.9728 129.523C-54.8107 121.163 -62.8369 112.078 -68.5678 101.052C-72.9007 92.7638 -74.7399 85.9205 -82.0424 81.1883C-103.687 67.1682 -133.794 70.835 -156.985 72.2926C-194.068 74.6129 -230.972 80.7896 -267.826 86.3519C-289.332 89.6199 -329.845 99.9013 -347.018 75.2404C-361.841 53.9456 -343.954 17.6373 -334.817 -1.12143C-311.705 -48.5608 -281.975 -90.1961 -254.391 -133.067C-241.749 -152.714 -228.612 -172.512 -218.171 -194.356C-215.504 -199.925 -211.231 -207.304 -210.497 -214.069C-209.674 -221.821 -213.516 -227.736 -217.403 -233.586Z" stroke="#5BE7C3" stroke-width="2"/>
<path fill-rule="evenodd" clip-rule="evenodd" d="M-214.681 -222.536C-243.935 -264.505 -279.178 -298.983 -310.584 -338.256C-324.666 -355.865 -338.886 -374.338 -349.616 -395.819C-355.387 -407.371 -361.515 -421.912 -359.924 -436.27C-355.357 -477.479 -301.357 -473.757 -279.54 -476.171C-247.123 -479.716 -209.882 -483.288 -181.218 -505.508C-162.441 -520.062 -155.4 -541.557 -158.905 -569.278C-162.669 -599.014 -154.255 -620.6 -135.106 -637.189C-111.098 -657.97 -80.7928 -666.441 -52.9174 -672.459C-19.333 -679.675 14.6768 -682.873 48.6975 -682.015C81.784 -681.178 113.839 -688.491 146.708 -693.247C190.286 -699.546 235.262 -702.653 278.35 -689.741C315.864 -678.496 349.749 -653.718 375.15 -615.4C401.682 -575.407 414.816 -525.02 436.36 -480.776C449.797 -453.179 468.534 -416.672 493.643 -405.945C502.018 -402.367 517.279 -407.194 510.59 -389.592C506.768 -379.525 499.613 -370.694 493.96 -362.465C484.827 -349.167 475.392 -336.235 466.105 -323.12C446.311 -295.163 425.115 -266.611 410.28 -233.506C391.587 -191.825 419.373 -159.747 415.987 -117.485C414.167 -94.7411 402.178 -76.5893 389.495 -62.3295C381.289 -53.0934 372.309 -45.0935 363.141 -37.63C353.567 -29.8329 342.237 -23.8935 333.888 -13.8135C321.988 0.531309 327.154 17.5122 329.385 36.0565C333.313 68.6461 334.175 101.751 331.954 134.619C329.237 174.906 322.865 216.345 309.443 252.956C304.222 267.209 297.608 282.319 287.785 291.876C277.963 301.432 267.804 300.778 256.548 297.9C223.164 289.397 189.85 269.61 158.181 250.856C118.545 227.38 79.6867 201.143 42.5789 171.296C16.9645 150.691 -8.73421 128.431 -30.1639 100.494C-36.3964 92.363 -42.3265 83.6567 -47.1212 73.9365C-50.4135 67.271 -52.1786 58.6694 -56.9485 53.6588C-71.8729 38.0189 -101.836 42.6893 -119.338 43.5985C-154.27 45.4104 -188.65 54.0251 -223.537 56.1183C-242.576 57.263 -272.395 60.1411 -286.378 38.758C-299.527 18.6569 -287.617 -13.0024 -279.758 -32.3709C-264.313 -70.4537 -243.563 -104.383 -224.965 -139.784C-217.319 -154.351 -208.939 -169.592 -203.986 -186.226C-199.583 -201.048 -207.184 -211.776 -214.681 -222.536Z" stroke="#5ACEF2" stroke-width="2"/>
<path fill-rule="evenodd" clip-rule="evenodd" d="M-207.486 -221.85C-230.771 -258.781 -258.842 -291.564 -282.296 -329.096C-296.024 -351.075 -319.666 -388.026 -309.049 -419.012C-297.401 -453.063 -256.801 -453.99 -233.333 -456.734C-205.4 -460 -172.598 -464.461 -148.694 -485.722C-141.133 -492.443 -134.693 -501.339 -131.963 -513.057C-129.04 -525.599 -132.235 -536.572 -132.652 -549.126C-133.524 -575.462 -121.604 -596.606 -105.829 -611.126C-83.5349 -631.656 -55.6572 -641.362 -29.3252 -648.129C0.507499 -655.761 30.8353 -659.524 61.2243 -659.363C90.2662 -659.233 119.001 -660.082 148.073 -661.062C186.092 -662.368 224.646 -660.258 261.526 -646.94C297.856 -633.811 330.886 -609.206 356.831 -573.013C382.143 -537.695 399.22 -494.527 414.177 -450.555C422.664 -425.596 437.001 -388.3 457.245 -375.693C466.247 -370.083 475.08 -370.468 465.508 -355.876C453.455 -337.502 437.21 -322.76 423.248 -307.044C403.109 -284.366 382.465 -261.243 365.561 -234.28C354.765 -217.062 349.955 -200.354 350.698 -178.061C351.273 -161.078 353.879 -144.271 352.561 -127.223C349.474 -87.2096 325.58 -59.7694 304.455 -34.217C290.865 -17.783 278.455 -5.24841 271.459 18.1289C263.185 45.7585 259.713 75.8179 254.184 104.506C248.11 136.009 241.094 168.779 227.837 196.526C216.036 221.229 201.683 232.307 180.201 225.651C146.695 215.279 113.67 189.726 83.9248 166.087C53.6491 142.037 23.8938 114.996 -1.19472 81.9382C-14.7397 64.0868 -23.9844 43.1262 -36.0134 23.9488C-51.1438 -0.127471 -85.3729 8.99095 -105.715 11.0289C-139.484 14.4124 -245.738 39.7296 -235.934 -42.2707C-231.841 -76.4974 -215.725 -108.085 -203.939 -138.288C-199.054 -150.823 -191.984 -165.866 -190.879 -180.229C-189.675 -195.873 -200.486 -210.733 -207.486 -221.85Z" stroke="#FF8062" stroke-width="2"/>
<path fill-rule="evenodd" clip-rule="evenodd" d="M-195.192 -218.714C-212.986 -252.18 -234.281 -283.798 -249.549 -319.944C-259.454 -343.353 -269.181 -374.631 -256.404 -399.399C-241.982 -427.35 -210.183 -433.866 -186.817 -437.427C-162.744 -441.094 -134.005 -444.178 -114.329 -465.372C-108.069 -472.123 -102.909 -481.226 -101.948 -492.127C-101.022 -502.584 -103.637 -513.04 -102.77 -523.686C-100.829 -547.592 -89.8393 -567.289 -75.6705 -581.575C-33.7582 -623.838 28.6223 -633.236 79.1913 -634.34C104.503 -634.889 130.553 -632.007 156.028 -629.942C189.085 -627.262 222.192 -621.511 253.719 -607.65C320.75 -578.189 365.678 -512.85 397.057 -431.546C406.932 -405.954 414.489 -378.264 429.965 -357.698C437.944 -347.078 436.2 -339.452 428.044 -329.766C415.291 -314.631 399.736 -303.063 385.582 -290.431C365.45 -272.466 344.888 -254.232 327.084 -232.712C314.812 -217.877 306.101 -203.584 303.456 -181.339C301.569 -165.478 302.01 -149.316 300.876 -133.357C298.717 -103.04 291.323 -72.9521 278.234 -47.8046C267.833 -27.8722 255.452 -9.75662 242.655 7.51595C226.02 30.0036 211.951 52.8507 199.317 79.5405C182.568 114.87 159.034 180.039 119.583 162.793C76.0713 143.762 35.2882 95.408 7.37152 48.5571C-2.00338 32.8268 -9.69941 13.5349 -22.3429 1.93488C-41.271 -15.403 -60.4764 -14.7953 -82.9901 -14.7234C-116.696 -14.6254 -190.041 -4.97285 -190.834 -71.5797C-191.146 -97.9689 -182.489 -122.92 -178.344 -148.303C-173.669 -176.731 -183.039 -195.906 -195.192 -218.714Z" stroke="#F1B170" stroke-width="2"/>
<path fill-rule="evenodd" clip-rule="evenodd" d="M-181.939 -215.73C-199.539 -259.348 -239.007 -331.022 -208.989 -379.525C-193.132 -405.158 -165.086 -414.79 -141.559 -420.531C-122.625 -425.174 -99.7922 -426.918 -85.4867 -446.601C-74.9719 -461.073 -79.6396 -482.134 -75.611 -500.25C-70.6113 -522.709 -59.1352 -541.086 -45.0328 -554.899C-5.62458 -593.501 49.1694 -605.348 96.5753 -607.869C145.81 -610.481 200.059 -598.262 246.389 -574.758C304.156 -545.442 347.434 -489.932 377.7 -419.636C383.285 -406.66 388.359 -393.344 393.72 -380.211C397.323 -371.401 402.664 -362.878 405.504 -353.611C410.231 -338.16 404.661 -325.53 395.732 -315.459C382.888 -300.961 367.111 -290.643 352.469 -279.763C332.445 -264.873 311.975 -250.251 293.349 -232.781C280.832 -221.026 267.731 -208.363 263.251 -187.968C260.194 -174.058 259.56 -159.325 259.669 -144.918C259.907 -114.028 258.678 -89.0485 247.747 -60.7578C229.76 -14.3119 202.1 27.4516 172.88 62.2011C149.947 89.4731 113.661 131.837 80.2481 113.604C50.2695 97.2772 32.7332 58.1979 12.982 26.6026C3.37891 11.2426 -7.40843 -2.78526 -20.0837 -13.711C-36.064 -27.4841 -51.1079 -33.2638 -70.0415 -35.5168C-101.908 -39.3111 -149.958 -40.2973 -159.809 -90.7138C-163.446 -109.32 -161.37 -128.592 -163.277 -147.439C-165.77 -172.36 -173.059 -193.728 -181.939 -215.73Z" stroke="#5BE7C3" stroke-width="2"/>
<path fill-rule="evenodd" clip-rule="evenodd" d="M-163.637 -214.114C-176.17 -261.841 -192.635 -321.99 -162.364 -364.408C-147.702 -384.956 -127.077 -396.443 -107.116 -405.028C-92.8196 -411.18 -70.12 -412.991 -61.3551 -431.905C-54.9176 -445.824 -54.0263 -465.026 -48.2028 -479.939C-40.2006 -500.442 -28.0783 -517.329 -13.8563 -530.549C23.1939 -564.997 71.4503 -578.308 115.458 -582.12C211.079 -590.39 308.375 -524.521 359.543 -416.149C374.8 -383.845 394.494 -349.462 369.838 -316.459C342.919 -280.455 302.368 -263.587 270.24 -238.004C257.964 -228.236 242.321 -216.494 235.473 -198.809C231.353 -188.179 231.07 -174.841 230.882 -163.138C230.387 -133.332 228.51 -106.527 219.423 -78.7145C205.39 -35.7343 183.012 3.91808 157.653 36.3984C135.538 64.7206 103.999 98.005 71.8811 77.5872C47.2552 61.8962 31.6369 28.5921 12.5027 4.0423C-8.79054 -23.2992 -35.1248 -41.723 -64.044 -50.7257C-92.1759 -59.4603 -123.031 -65.351 -137.857 -102.46C-142.943 -115.189 -148.256 -131.671 -150.163 -145.761C-153.241 -168.991 -157.747 -191.851 -163.637 -214.114V-214.114Z" stroke="#FF8062" stroke-width="2"/>
<path fill-rule="evenodd" clip-rule="evenodd" d="M-143.23 -213.778C-149.029 -261.972 -149.673 -312.225 -122.733 -350.208C-110.16 -367.929 -94.2672 -380.518 -78.1956 -391.925C-66.3712 -400.317 -54.1601 -407.397 -45.3289 -421.156C-37.147 -433.896 -30.9275 -448.688 -23.028 -461.761C-12.6077 -479.085 -0.139503 -494.083 13.8975 -506.176C49.0835 -536.434 91.8865 -550.586 132.836 -555.494C152.659 -557.88 174.162 -559.122 193.852 -552.618C212.867 -546.343 231.669 -536.421 249.153 -524.851C286.321 -500.28 318.534 -464.297 341.886 -418.803C357.898 -387.597 366.555 -357.255 345.82 -325.598C322.444 -289.916 285.791 -270.228 255.581 -247.069C234.861 -231.185 211.638 -215.615 207.767 -181.86C204.685 -155.002 202.182 -129.509 194.208 -104.122C182.341 -66.674 164.892 -32.7518 142.896 -4.36764C122.781 21.4908 97.3329 43.434 68.5597 29.6223C45.7631 18.6605 28.076 -5.89718 8.15871 -23.4543C-14.0382 -43.0638 -38.4256 -53.8753 -64.1064 -62.5688C-87.1855 -70.4127 -108.917 -82.466 -123.833 -108.056C-126.886 -113.286 -130.093 -118.979 -132.447 -124.829C-135.45 -132.294 -135.217 -139.693 -135.807 -148.06C-137.343 -170.14 -140.609 -191.966 -143.23 -213.778Z" stroke="#F1B170" stroke-width="2"/>
<path fill-rule="evenodd" clip-rule="evenodd" d="M258.101 644.649C217.747 676.944 172.127 703.602 129.108 730.698C66.2407 770.29 2.4474 808.817 -63.6096 838.31C-99.0255 854.118 -144.918 876.909 -182.919 864.524C-196.813 859.997 -209.484 846.305 -221.941 837.408C-239.119 825.141 -256.55 813.481 -273.951 801.795C-308.856 778.37 -343.871 755.181 -378.178 730.254C-394.697 718.248 -410.726 703.125 -427.924 692.883C-437.974 686.893 -450 689.695 -460.739 690.074C-485.614 690.956 -510.475 692.628 -535.335 694.052C-565.744 695.79 -596.221 697.638 -626.664 696.952C-640.394 696.639 -674.022 699.853 -681.581 684.254C-685.648 675.853 -676.063 660.705 -671.62 653.696C-663.462 640.815 -654.085 629.207 -644.833 617.717C-623.434 591.144 -600.709 565.838 -581.688 536.155C-571.915 520.896 -559.111 502.253 -565.491 481.422C-571.93 460.382 -583.085 442.163 -589.891 421.195C-597.727 397.065 -600.976 371.955 -604.676 346.368C-607.416 327.457 -613.795 310.702 -619.794 293.268C-626.421 273.998 -633.287 254.564 -637.888 234.243C-640.93 220.819 -645.838 196.669 -635.199 188.171C-620.081 176.086 -591.733 185.871 -574.501 189.431C-550.686 194.344 -527.044 200.602 -503.293 205.991C-486.05 209.91 -468.748 214.208 -451.219 214.665C-422.96 215.404 -394.608 212.849 -366.424 210.472C-314.236 206.069 -262.422 200.099 -210.058 200.099C-164.182 200.099 -58.1659 270.104 -33.35 282.431C16.1828 307.038 67.0332 330.364 113.906 363.104C126.587 371.968 146.102 383.778 152.775 402.023C156.891 413.265 154.999 419.764 164.707 427.008C177.952 436.892 194.922 440.772 209.584 445.194C233.196 452.314 256.992 458.343 280.713 464.791C328.69 477.796 376.341 492.507 424.12 506.662C438.564 510.941 456.039 511.888 469.809 519.426C478.686 524.267 477.764 530.361 470.894 537.717C458.843 550.624 441.952 557.79 427.716 565.152C406.858 575.937 385.658 585.559 364.448 595.043C343.238 604.528 321.919 613.719 300.699 623.223C286.682 629.481 270.697 634.57 258.101 644.649Z" stroke="#FF8062" stroke-width="2"/>
<path fill-rule="evenodd" clip-rule="evenodd" d="M224.893 637.545C182.206 669.906 134.823 695.687 89.144 720.839C30.6827 753.049 -29.1014 783.239 -90.6988 803.374C-126.865 815.188 -169.537 828.232 -206.492 814.684C-219.675 809.85 -229.525 798.984 -240.825 789.394C-253.707 778.45 -267.083 768.422 -280.46 758.551C-307.996 738.233 -335.823 718.608 -363.941 699.677C-378.834 689.609 -395.228 676.127 -412.053 672.634C-425.429 669.854 -440.624 673.877 -454.061 675.048C-478.258 677.154 -502.45 679.326 -526.657 681.171C-554.589 683.297 -582.601 685.259 -610.593 684.919C-626.194 684.729 -652.978 687.863 -664.011 674.564C-673.637 662.959 -638.59 620.988 -632.427 613.014C-613.179 588.117 -592.936 564.41 -575.021 537.786C-564.433 522.087 -551.542 502.992 -547.078 482.183C-543.278 464.449 -550.611 444.242 -554.941 427.849C-560.356 407.315 -564.726 386.029 -571.018 365.926C-576.621 348.016 -585.539 332.061 -593.372 315.779C-601.987 297.868 -610.712 279.663 -617.108 260.123C-621.027 248.1 -627.512 227.965 -619.724 216.504C-610.727 203.29 -582.992 211.925 -571.592 213.809C-548.466 217.682 -525.517 223.438 -502.549 228.593C-464.4 237.149 -428.03 244.633 -389.183 242.84C-338.594 240.499 -288.055 234.991 -237.476 231.942C-218.798 230.804 -199.823 228.514 -181.13 229.751C-170.414 230.464 -162.254 234.781 -156.022 244.522C-147.51 257.814 -127.906 265.173 -114.272 272.801C-93.0124 284.687 -71.4858 295.742 -50.0186 306.941C-2.89288 331.537 45.1395 355.244 89.8327 387.056C103.972 397.117 120.163 408.335 130.622 424.957C136.458 434.227 134.987 443.156 138.549 453.008C143.265 465.967 158.772 471.815 168.042 476.054C185.932 484.244 204.556 489.732 223.035 494.874C264.85 506.505 306.764 514.152 349.257 519.784C359.215 521.092 398.429 525.626 377.834 547.474C355.079 571.619 322.221 583.453 295.433 597.059C271.301 609.292 247.148 620.674 224.893 637.545Z" stroke="#5BE7C3" stroke-width="2"/>
<path fill-rule="evenodd" clip-rule="evenodd" d="M165.901 631.56C125.777 660.03 81.3283 681.27 38.1146 701.589C-14.3241 726.244 -68.0771 748.222 -123.075 760.534C-157.624 768.26 -195.714 774.197 -230.03 761.357C-253.465 752.592 -271.593 728.896 -292.175 712.594C-312.758 696.292 -334.174 680.989 -356.23 668.233C-369.918 660.317 -384.644 652.343 -399.875 653.388C-436.909 655.922 -473.898 661.963 -510.972 664.896C-535.497 666.855 -560.072 668.468 -584.672 667.985C-599.507 667.698 -619.886 668.873 -633.019 658.58C-647.536 647.196 -570.24 549.997 -562.934 539.057C-544.618 511.626 -522.438 475.22 -525.98 436.209C-529.367 398.915 -544.048 371.072 -560.653 341.851C-570.076 325.229 -600.295 280.823 -589.096 259.204C-582.698 246.847 -561.61 251.125 -551.591 251.968C-531.847 253.627 -512.211 257.193 -492.571 260.289C-463.934 264.776 -434.508 271.705 -405.747 273.736C-385.72 275.147 -365.574 273.26 -345.512 273.22C-316.746 273.168 -287.979 273.456 -259.213 273.795C-235.06 274.083 -210.703 273.795 -186.633 276.852C-171.67 278.733 -160.312 282.959 -149.579 294.898C-140.24 305.283 -126.15 311.363 -114.247 317.966C-94.5865 328.867 -74.6685 338.971 -54.8149 349.238C-13.2478 370.739 28.7954 391.79 68.582 418.659C86.7443 430.919 117.281 448.083 121.541 477.807C123.079 488.525 124.21 493.155 132.145 499.249C143.409 507.897 156.899 511.796 169.536 515.185C198.997 523.088 229.31 521.906 258.721 529.718C270.699 532.937 286.337 539.887 272.663 555.797C256.708 574.405 233.481 584.633 214.367 596.128C204.824 601.862 194.994 607.231 185.933 614.233C178.975 619.627 173.018 626.544 165.901 631.56Z" stroke="#5ACEF2" stroke-width="2"/>
<path fill-rule="evenodd" clip-rule="evenodd" d="M89.9052 622.672C52.8357 645.796 12.5772 662.608 -26.9584 677.764C-70.8713 694.577 -115.844 708.502 -161.411 714.427C-192.875 718.532 -226.399 719.743 -256.937 707.179C-276.249 699.231 -289.342 682.517 -305.96 668.5C-331.041 647.314 -358.177 630.528 -388.309 634.613C-422.091 639.183 -455.983 642.612 -489.986 644.899C-510.496 646.28 -531.086 647.314 -551.621 646.352C-564.605 645.75 -581.332 644.735 -592.628 636.977C-607.741 626.587 -550.973 547.526 -543.896 536.004C-526.347 507.427 -513.482 477.442 -505.965 442.036C-499.835 413.145 -512.358 390.433 -525.278 368.822C-533.309 355.401 -559.262 321.645 -551.136 304.217C-546.679 294.606 -531.992 295.104 -524.104 294.613C-509.07 293.683 -493.972 294.652 -478.938 295.078C-456.739 295.732 -433.109 291.235 -411.098 294.855C-362.317 302.868 -313.66 309.808 -264.578 315.301C-237.521 318.326 -210.3 321.075 -183.486 326.909C-173.86 329.004 -163.917 331.223 -154.795 335.963C-148.927 339.007 -145.728 344.193 -140.777 348.448C-117.166 368.704 -86.3458 379.127 -59.7544 392.109C-24.4032 409.367 11.1362 426.356 45.5466 446.743C63.6456 457.467 88.9248 469.788 101.379 491.675C105.142 498.287 103.538 503.577 105.905 509.934C108.628 517.267 116.903 519.453 122.246 521.496C134.373 526.138 185.134 533.156 161.742 560.385C150.58 573.354 136.359 581.675 123.776 591.869C119.22 595.561 114.778 599.273 110.98 604.255C104.627 612.609 98.3679 617.375 89.9052 622.672Z" stroke="#F1B170" stroke-width="2"/>
<path fill-rule="evenodd" clip-rule="evenodd" d="M8.93206 612.661C-64.2481 650.072 -150.012 675.56 -229.797 670.622C-256.329 668.973 -284.875 663.473 -307.874 644.65C-321.435 633.531 -332.273 620.98 -348.563 616.964C-360.323 614.067 -372.986 617.357 -384.816 618.547C-401.949 620.274 -419.093 621.817 -436.252 623.066C-457.524 624.59 -478.866 625.768 -500.178 625.14C-515.406 624.688 -536.436 625.199 -549.664 614.407C-565.459 601.535 -525.256 541.155 -519.599 530.396C-505.889 504.319 -496.278 479.054 -492.804 447.627C-491.782 438.47 -488.339 429.085 -488.785 419.856C-489.252 410.432 -493.653 402.04 -497.717 394.63C-503.031 384.918 -521.47 361.882 -516.19 350.038C-513.273 343.497 -502.322 342.673 -496.645 341.287C-485.996 338.671 -475.194 337.264 -464.481 335.185C-446.305 331.64 -428.258 320.096 -410.018 320.423C-360.968 321.286 -311.209 341.352 -263.141 352.373C-234.565 358.946 -205.795 364.911 -177.566 373.812C-168.634 376.631 -159.435 379.548 -150.945 384.329C-145.02 387.665 -141.214 393.61 -135.726 397.344C-114.682 411.687 -90.4824 420.393 -67.8852 430.046C-38.5497 442.604 -9.11487 454.782 20.0173 468.151C38.2776 476.529 61.7579 483.9 77.4925 499.44C88.9846 510.787 81.1297 514.182 75.0661 524.751C71.9698 530.141 72.6843 535.451 71.3396 541.553C69.4193 550.265 63.9908 556.538 58.8998 562.175C51.8785 569.965 42.5251 576.381 36.784 585.93C34.7595 589.292 34.8537 593.465 33.2163 596.395C28.4527 604.93 15.8144 609.142 8.93206 612.661Z" stroke="#FF8062" stroke-width="2"/>
<path fill-rule="evenodd" clip-rule="evenodd" d="M-68.8735 599.331C-128.267 622.852 -194.353 636.245 -257.135 630.029C-278.978 627.864 -300.956 622.832 -321.304 611.782C-330.561 606.77 -337.51 601.183 -347.655 600.882C-371.192 600.188 -394.804 602.616 -418.337 603.198C-435.178 603.617 -452.103 603.767 -468.904 601.981C-480.138 600.79 -495.329 599.364 -504.532 590.276C-517.906 577.041 -493.764 532.047 -488.851 519.616C-480.708 499.001 -472.629 476.082 -475.858 452.228C-476.849 444.933 -478.602 438.488 -478.83 431.049C-479.048 424.657 -478.439 418.756 -480.158 412.645C-482.283 405.069 -491.733 393.311 -488.484 386.337C-486.27 381.574 -479.702 381.352 -475.333 379.827C-468.248 377.355 -461.329 374.112 -454.649 370.131C-447.615 365.918 -441.627 359.408 -434.341 355.927C-422.512 350.287 -409.272 349.757 -396.84 349.784C-347.234 349.888 -296.998 362.797 -248.65 376.294C-223.473 383.321 -198.157 390.812 -173.688 401.47C-166.258 404.709 -157.838 407.96 -151.305 413.94C-147.228 417.663 -144.464 422.328 -139.833 425.128C-100.272 449.035 -54.534 457.913 -12.5358 475.179C-1.60404 479.674 58.9786 502.383 27.3029 523.745C8.05966 536.725 -12.2732 542.627 -29.8323 560.383C-35.1818 565.781 -38.7481 570.249 -40.8384 578.487C-42.2154 583.969 -38.9017 581.189 -43.528 586.92C-49.1399 593.809 -61.9539 596.59 -68.8735 599.331Z" stroke="#F1B170" stroke-width="2"/>
</g>
<mask id="mask1_793_1120" style="mask-type:alpha" maskUnits="userSpaceOnUse" x="0" y="0" width="1930" height="821">
<rect width="1930" height="821" fill="white"/>
</mask>
<g mask="url(#mask1_793_1120)">
<path fill-rule="evenodd" clip-rule="evenodd" d="M1660.53 928.472C1660.45 906.492 1628.82 881.773 1615.3 869.03C1588.59 843.824 1560.8 820.548 1533.27 796.901C1505.74 773.253 1478.14 749.669 1451.89 723.708C1434.84 706.855 1414.81 687.874 1403.25 663.81C1378.63 612.527 1456.27 620.143 1476.38 619.021C1527.55 616.155 1586.23 617.463 1634.19 590.758C1662.82 574.815 1674.24 548.078 1668.09 509.109C1666.11 496.436 1660.24 481.853 1665.21 469.507C1670.52 456.32 1682.72 448.711 1692.86 443.609C1729.81 425.019 1772.31 422.865 1811.41 420.532C1853.58 417.968 1896.14 418.718 1938.01 418.519C1955.76 418.436 1974.3 410.185 1991.21 403.48C2013.37 394.692 2035.27 384.82 2057.25 375.275C2105.61 354.326 2155.43 332.262 2206.59 326.941C2238.63 323.608 2273.65 328.114 2298.53 357.108C2311.03 371.666 2317.57 393.307 2324.8 412.532C2333.54 435.756 2341.94 459.205 2351.25 482.064C2381.24 555.687 2424.06 627.63 2493.56 631.245C2504.08 631.79 2514.4 630.015 2524.87 629.681C2531.53 629.476 2537.46 631.559 2539.94 640.579C2546.17 663.201 2526.59 698.913 2518.57 716.861C2500.99 756.15 2481.17 793.676 2462.61 832.177C2450.32 857.638 2429.06 892.434 2428.84 923.37C2428.64 950.934 2456.98 970.857 2472.41 984.435C2486.87 997.146 2513.07 1014.93 2514.65 1040.79C2515.42 1053.33 2509.03 1063.72 2502.35 1071.79C2490.65 1085.89 2477.18 1095.84 2466.65 1111.93C2449.4 1138.33 2434.98 1174.65 2437.32 1210.22C2438.95 1234.87 2449.82 1251.01 2463.65 1266.44C2469.46 1272.92 2474.17 1277.51 2474.48 1288.05C2474.98 1304.77 2469.91 1322.47 2465.74 1337.98C2450.82 1393.47 2429.62 1447.13 2406.04 1497.23C2394.26 1522.27 2381.53 1547.23 2365.91 1568.59C2355.67 1582.62 2341.87 1599.31 2326.27 1599.29C2308.2 1599.29 2289.08 1590.86 2271.51 1584.55C2238.7 1572.76 2206.29 1559.13 2174.01 1545.15C2099.36 1512.8 2025.41 1477.84 1952.16 1440.25C1900.56 1413.73 1847.87 1387.18 1799.37 1351.92C1789.91 1345 1780.98 1336.92 1772.7 1327.81C1763.85 1318.24 1752.88 1313.96 1741.75 1310.76C1672.68 1290.95 1597.01 1306.16 1527.65 1315.7C1510.05 1318.12 1492.44 1320.55 1474.79 1322.24C1459.61 1323.69 1441.44 1327.87 1426.69 1321.6C1397.63 1309.26 1423.03 1263.78 1433.78 1245.24C1471.6 1179.99 1520.39 1124.79 1565.62 1068.43C1587.12 1041.59 1608.79 1014.82 1629.13 986.46C1639.72 971.716 1660.6 947.742 1660.53 928.472Z" stroke="#5BE7C3" stroke-width="2"/>
<path fill-rule="evenodd" clip-rule="evenodd" d="M1673.56 924.76C1661.97 901.501 1641.63 884.31 1624.75 868.131C1600.45 844.84 1575.39 822.843 1550.71 800.212C1527.37 778.811 1503.98 757.166 1482.37 732.863C1469.19 718.042 1452.65 700.319 1446.41 678.399C1432.87 630.888 1505.72 638.096 1523.7 636.853C1568.41 633.778 1619.1 633.073 1660.46 608.058C1686.29 592.437 1696.9 566.531 1691.39 530.566C1689.49 518.123 1686.05 507.499 1690.4 495.12C1695.42 480.793 1706.97 471.861 1717.56 465.556C1750.74 445.801 1789.95 441.605 1825.92 438.112C1863.07 434.505 1901.78 431.961 1937.74 434.601C1952.11 435.652 1968.67 429.687 1982.9 425.112C2004.79 418.063 2026.46 409.932 2048.25 402.371C2092.53 386.994 2137.96 372.179 2184.02 370.494C2217.27 369.277 2251.95 375.877 2279.61 401.385C2307.65 427.252 2320.09 467.35 2335.64 505.468C2362.5 571.369 2398.76 651.494 2460.89 665.418C2470.31 667.532 2479.37 666.385 2488.78 666.904C2493.62 667.167 2499.13 668 2501.58 674.17C2507.95 690.189 2490.49 719.478 2484.62 731.748C2468.38 765.656 2450.13 797.905 2433.12 831.16C2419.61 857.565 2402.48 886.905 2397.26 918.206C2390.92 956.189 2432.35 983.216 2446.92 1009.96C2472.19 1056.34 2424.32 1082.76 2400.73 1104.87C2373.63 1130.26 2351.26 1176.57 2375.56 1215.85C2384.85 1230.87 2396.28 1239.82 2400.43 1259.42C2406.92 1290.08 2402.01 1325.11 2396.75 1355.41C2388.81 1400.96 2376.26 1446.02 2359.19 1487.18C2346.97 1516.66 2326.68 1562.87 2296.98 1559.41C2276.98 1557.1 2256.65 1548.64 2237.18 1541.17C2208.03 1529.99 2179.24 1517.25 2150.6 1504.01C2084.51 1473.54 2019.14 1439.93 1955.05 1402.98C1911.32 1377.75 1789.35 1274.66 1780.17 1270.98C1752.81 1260.03 1721.69 1261.95 1693.48 1263.65C1655.95 1265.91 1618.61 1271.75 1581.3 1277.17C1563.54 1279.73 1545.69 1282.86 1527.84 1284.12C1515.13 1285.02 1498.44 1285.79 1487.31 1276.24C1465.58 1257.6 1489.79 1214.95 1499.8 1196.91C1530.46 1141.59 1569.26 1093.69 1605.63 1044.71C1623.48 1020.66 1641.6 996.652 1657.81 970.676C1664.34 960.187 1680.72 939.126 1673.56 924.76Z" stroke="#5ACEF2" stroke-width="2"/>
<path fill-rule="evenodd" clip-rule="evenodd" d="M1689.6 912.839C1657.94 866.295 1614.24 831.679 1576.53 792.806C1557.6 773.29 1538.56 753.242 1522.23 729.995C1513.74 717.907 1503.13 702.621 1501.5 685.771C1497.13 640.695 1562.78 646.79 1582.44 645.079C1620.43 641.759 1663.35 639.24 1697.82 616.237C1718.88 602.175 1729.25 579.095 1725.32 548.76C1723.57 535.301 1720.85 523.867 1725.32 510.651C1729.84 497.262 1739.26 487.814 1748.8 480.732C1776.21 460.364 1810.27 453.852 1841.13 449C1877.33 443.349 1913.81 441.142 1950.26 442.398C1982.19 443.481 2013.96 431.297 2045.13 423.267C2086.43 412.634 2128.47 403.347 2170.73 404.75C2204.1 405.865 2237.74 414.627 2266.27 437.912C2295.26 461.626 2312.69 497.121 2328.41 535.423C2352.17 593.324 2381.77 670.915 2433.89 692.905C2441.47 696.11 2448.54 696.462 2456.35 697.02C2460.15 697.289 2465.05 697.372 2466.94 702.493C2471.47 714.825 2454.72 738.731 2450.04 747.063C2435.12 773.662 2418.94 799.062 2403.65 825.308C2389.37 849.81 2373.82 875.345 2364.95 904.058C2350.84 949.789 2395.96 976.528 2394.7 1020.1C2393.91 1047.16 2373.88 1066.56 2358.01 1079.98C2338.48 1096.48 2310.35 1107.34 2300.58 1137.45C2293.3 1159.88 2304.72 1172.94 2313.52 1189.96C2328.43 1218.81 2329.45 1257.9 2327.9 1291.29C2325.81 1336.4 2317.63 1382.18 2303.72 1423.65C2297.41 1442.45 2289.69 1462.01 2278.31 1476.61C2267.66 1490.29 2257.58 1493.8 2243.34 1490.99C2199.75 1482.41 2155.74 1458.47 2113.95 1437.09C2061.43 1410.22 2009.64 1380.56 1959.4 1347.18C1925.13 1324.42 1890.1 1300.34 1860.03 1268.9C1852.19 1260.7 1844.16 1251.79 1838.43 1240.98C1834.1 1232.85 1832.26 1226.14 1824.96 1221.5C1803.31 1207.76 1773.21 1211.35 1750.01 1212.78C1712.93 1215.06 1676.03 1221.11 1639.17 1226.57C1617.67 1229.77 1577.16 1239.85 1559.98 1215.67C1545.16 1194.79 1563.05 1159.19 1572.18 1140.79C1595.29 1094.27 1625.03 1053.45 1652.61 1011.41C1665.25 992.141 1678.39 972.727 1688.83 951.308C1691.5 945.847 1695.77 938.611 1696.5 931.977C1697.33 924.376 1693.48 918.575 1689.6 912.839Z" stroke="#5BE7C3" stroke-width="2"/>
<path fill-rule="evenodd" clip-rule="evenodd" d="M1692.32 923.666C1663.07 882.512 1627.82 848.703 1596.42 810.192C1582.33 792.925 1568.11 774.811 1557.38 753.747C1551.61 742.419 1545.48 728.161 1547.08 714.081C1551.64 673.672 1605.64 677.321 1627.46 674.955C1659.88 671.478 1697.12 667.976 1725.78 646.187C1744.56 631.915 1751.6 610.838 1748.09 583.654C1744.33 554.495 1752.75 533.329 1771.89 517.062C1795.9 496.684 1826.21 488.378 1854.08 482.477C1887.67 475.401 1921.68 472.264 1955.7 473.105C1988.78 473.926 2020.84 466.755 2053.71 462.092C2097.29 455.915 2142.26 452.869 2185.35 465.53C2222.86 476.556 2256.75 500.853 2282.15 538.428C2308.68 577.644 2321.82 627.053 2343.36 670.439C2356.8 697.501 2375.53 733.298 2400.64 743.818C2409.02 747.326 2424.28 742.593 2417.59 759.853C2413.77 769.725 2406.61 778.384 2400.96 786.453C2391.83 799.493 2382.39 812.174 2373.1 825.035C2353.31 852.449 2332.11 880.447 2317.28 912.909C2298.59 953.781 2326.37 985.236 2322.99 1026.68C2321.17 1048.98 2309.18 1066.78 2296.49 1080.76C2288.29 1089.82 2279.31 1097.66 2270.14 1104.98C2260.57 1112.63 2249.24 1118.45 2240.89 1128.34C2228.99 1142.4 2234.15 1159.06 2236.39 1177.24C2240.31 1209.2 2241.18 1241.66 2238.95 1273.89C2236.24 1313.39 2229.87 1354.03 2216.44 1389.93C2211.22 1403.91 2204.61 1418.72 2194.79 1428.09C2184.96 1437.46 2174.8 1436.82 2163.55 1434C2130.16 1425.66 2096.85 1406.26 2065.18 1387.87C2025.54 1364.85 1986.69 1339.12 1949.58 1309.85C1923.96 1289.65 1898.27 1267.82 1876.84 1240.43C1870.6 1232.45 1864.67 1223.92 1859.88 1214.38C1856.59 1207.85 1854.82 1199.41 1850.05 1194.5C1835.13 1179.16 1805.16 1183.74 1787.66 1184.64C1752.73 1186.41 1718.35 1194.86 1683.46 1196.91C1664.42 1198.03 1634.6 1200.86 1620.62 1179.89C1607.47 1160.18 1619.38 1129.13 1627.24 1110.14C1642.69 1072.8 1663.44 1039.53 1682.04 1004.81C1689.68 990.528 1698.06 975.583 1703.01 959.271C1707.42 944.737 1699.82 934.217 1692.32 923.666Z" stroke="#5ACEF2" stroke-width="2"/>
<path fill-rule="evenodd" clip-rule="evenodd" d="M1699.51 924.344C1676.23 888.13 1648.16 855.983 1624.7 819.18C1610.98 797.627 1587.33 761.393 1597.95 731.008C1609.6 697.619 1650.2 696.709 1673.67 694.019C1701.6 690.817 1734.4 686.442 1758.31 665.594C1765.87 659.003 1772.31 650.279 1775.04 638.789C1777.96 626.491 1774.76 615.731 1774.35 603.42C1773.48 577.595 1785.4 556.862 1801.17 542.624C1823.47 522.493 1851.34 512.975 1877.67 506.339C1907.51 498.855 1937.84 495.165 1968.22 495.323C1997.27 495.451 2026 494.618 2055.07 493.657C2093.09 492.376 2131.65 494.445 2168.53 507.505C2204.86 520.379 2237.89 544.507 2263.83 579.997C2289.14 614.629 2306.22 656.96 2321.18 700.078C2329.66 724.552 2344 761.124 2364.24 773.486C2373.25 778.988 2382.08 778.61 2372.51 792.919C2360.45 810.936 2344.21 825.392 2330.25 840.803C2310.11 863.041 2289.46 885.715 2272.56 912.155C2261.77 929.038 2256.95 945.422 2257.7 967.283C2258.27 983.936 2260.88 1000.42 2259.56 1017.13C2256.47 1056.37 2232.58 1083.28 2211.45 1108.33C2197.86 1124.45 2185.45 1136.74 2178.46 1159.66C2170.19 1186.76 2166.71 1216.23 2161.18 1244.36C2155.11 1275.26 2148.09 1307.39 2134.84 1334.6C2123.04 1358.82 2108.68 1369.68 2087.2 1363.16C2053.7 1352.99 2020.67 1327.93 1990.92 1304.75C1960.65 1281.17 1930.89 1254.65 1905.81 1222.23C1892.26 1204.73 1883.02 1184.18 1870.99 1165.37C1855.86 1141.76 1821.63 1150.7 1801.28 1152.7C1767.52 1156.02 1661.26 1180.85 1671.07 1100.44C1675.16 1066.87 1691.27 1035.9 1703.06 1006.28C1707.95 993.992 1715.02 979.241 1716.12 965.156C1717.32 949.816 1706.51 935.245 1699.51 924.344Z" stroke="#FF8062" stroke-width="2"/>
<path fill-rule="evenodd" clip-rule="evenodd" d="M1711.81 927.411C1694.01 894.594 1672.72 863.591 1657.45 828.146C1647.55 805.191 1637.82 774.521 1650.6 750.233C1665.02 722.824 1696.82 716.435 1720.18 712.943C1744.26 709.348 1773 706.323 1792.67 685.541C1798.93 678.921 1804.09 669.994 1805.05 659.305C1805.98 649.051 1803.36 638.798 1804.23 628.359C1806.17 604.917 1817.16 585.602 1831.33 571.594C1873.24 530.151 1935.62 520.935 1986.19 519.852C2011.5 519.314 2037.55 522.14 2063.03 524.165C2096.09 526.793 2129.19 532.432 2160.72 546.024C2227.75 574.913 2272.68 638.984 2304.06 718.71C2313.93 743.805 2321.49 770.958 2336.97 791.125C2344.94 801.538 2343.2 809.017 2335.04 818.514C2322.29 833.356 2306.74 844.699 2292.58 857.086C2272.45 874.703 2251.89 892.582 2234.08 913.685C2221.81 928.232 2213.1 942.247 2210.46 964.061C2208.57 979.614 2209.01 995.462 2207.88 1011.11C2205.72 1040.84 2198.32 1070.34 2185.23 1095C2174.83 1114.55 2162.45 1132.31 2149.66 1149.25C2133.02 1171.3 2118.95 1193.7 2106.32 1219.88C2089.57 1254.52 2066.03 1318.42 2026.58 1301.51C1983.07 1282.85 1942.29 1235.44 1914.37 1189.49C1905 1174.07 1897.3 1155.15 1884.66 1143.78C1865.73 1126.78 1846.52 1127.37 1824.01 1127.44C1790.3 1127.54 1716.96 1137 1716.17 1071.69C1715.85 1045.81 1724.51 1021.35 1728.66 996.455C1733.33 968.579 1723.96 949.777 1711.81 927.411Z" stroke="#F1B170" stroke-width="2"/>
<path fill-rule="evenodd" clip-rule="evenodd" d="M1725.06 930.341C1707.46 887.57 1667.99 817.287 1698.01 769.725C1713.87 744.59 1741.91 735.145 1765.44 729.516C1784.37 724.962 1807.21 723.253 1821.51 703.951C1832.03 689.76 1827.36 669.108 1831.39 651.343C1836.39 629.32 1847.86 611.3 1861.97 597.756C1901.38 559.902 1956.17 548.286 2003.58 545.814C2052.81 543.252 2107.06 555.234 2153.39 578.282C2211.16 607.029 2254.43 661.462 2284.7 730.393C2290.29 743.117 2295.36 756.175 2300.72 769.053C2304.32 777.692 2309.66 786.049 2312.5 795.136C2317.23 810.288 2311.66 822.673 2302.73 832.548C2289.89 846.764 2274.11 856.882 2259.47 867.551C2239.45 882.152 2218.98 896.49 2200.35 913.621C2187.83 925.148 2174.73 937.565 2170.25 957.564C2167.19 971.204 2166.56 985.651 2166.67 999.778C2166.91 1030.07 2165.68 1054.56 2154.75 1082.31C2136.76 1127.85 2109.1 1168.8 2079.88 1202.88C2056.95 1229.62 2020.66 1271.16 1987.25 1253.28C1957.27 1237.27 1939.73 1198.95 1919.98 1167.97C1910.38 1152.91 1899.59 1139.15 1886.92 1128.44C1870.94 1114.93 1855.89 1109.27 1836.96 1107.06C1805.09 1103.34 1757.04 1102.37 1747.19 1052.93C1743.55 1034.69 1745.63 1015.79 1743.72 997.307C1741.23 972.869 1733.94 951.916 1725.06 930.341Z" stroke="#5BE7C3" stroke-width="2"/>
<path fill-rule="evenodd" clip-rule="evenodd" d="M1743.36 931.926C1730.83 885.126 1714.36 826.145 1744.64 784.55C1759.3 764.4 1779.92 753.136 1799.88 744.718C1814.18 738.686 1836.88 736.91 1845.64 718.363C1852.08 704.714 1852.97 685.885 1858.8 671.261C1866.8 651.156 1878.92 634.597 1893.14 621.633C1930.19 587.854 1978.45 574.801 2022.46 571.063C2118.08 562.954 2215.37 627.544 2266.54 733.813C2281.8 765.49 2301.49 799.205 2276.84 831.568C2249.92 866.874 2209.37 883.414 2177.24 908.5C2164.96 918.078 2149.32 929.592 2142.47 946.934C2138.35 957.359 2138.07 970.437 2137.88 981.913C2137.39 1011.14 2135.51 1037.43 2126.42 1064.7C2112.39 1106.84 2090.01 1145.73 2064.65 1177.58C2042.54 1205.35 2011 1237.99 1978.88 1217.97C1954.26 1202.58 1938.64 1169.92 1919.5 1145.85C1898.21 1119.04 1871.88 1100.97 1842.96 1092.14C1814.82 1083.58 1783.97 1077.8 1769.14 1041.41C1764.06 1028.93 1758.74 1012.77 1756.84 998.953C1753.76 976.174 1749.25 953.758 1743.36 931.926V931.926Z" stroke="#FF8062" stroke-width="2"/>
<path fill-rule="evenodd" clip-rule="evenodd" d="M1763.77 932.251C1757.97 884.993 1757.33 835.716 1784.27 798.469C1796.84 781.093 1812.73 768.748 1828.8 757.563C1840.63 749.333 1852.84 742.391 1861.67 728.899C1869.85 716.406 1876.07 701.901 1883.97 689.082C1894.39 672.094 1906.86 657.387 1920.9 645.528C1956.08 615.858 1998.89 601.981 2039.84 597.167C2059.66 594.828 2081.16 593.61 2100.85 599.988C2119.87 606.141 2138.67 615.871 2156.15 627.216C2193.32 651.31 2225.53 686.595 2248.89 731.206C2264.9 761.806 2273.56 791.559 2252.82 822.601C2229.44 857.592 2192.79 876.898 2162.58 899.607C2141.86 915.183 2118.64 930.45 2114.77 963.55C2111.68 989.887 2109.18 1014.88 2101.21 1039.78C2089.34 1076.5 2071.89 1109.76 2049.9 1137.6C2029.78 1162.95 2004.33 1184.47 1975.56 1170.93C1952.76 1160.18 1935.08 1136.1 1915.16 1118.88C1892.96 1099.65 1868.57 1089.05 1842.89 1080.53C1819.81 1072.83 1798.08 1061.01 1783.17 1035.92C1780.11 1030.79 1776.91 1025.21 1774.55 1019.47C1771.55 1012.15 1771.78 1004.9 1771.19 996.694C1769.66 975.042 1766.39 953.64 1763.77 932.251Z" stroke="#F1B170" stroke-width="2"/>
<path fill-rule="evenodd" clip-rule="evenodd" d="M1786.27 928.391C1786.77 883.503 1795.11 841.08 1817.97 806.097C1827.75 791.133 1839.42 778.806 1850.17 765.093C1858.83 754.038 1867.01 743.766 1876.97 734.656C1900.59 713.085 1919.78 685.171 1944.88 665.962C1978.39 640.283 2016.76 626.088 2054.85 620.413C2073.44 617.639 2092.65 616.67 2111.47 619.803C2127.62 622.493 2143.1 631.937 2157.45 641.599C2185.59 660.525 2212.91 687.424 2231.18 721.457C2271.45 796.487 2192.04 851.037 2151.29 882.983C2132.54 897.678 2103.9 914.698 2096.22 943.806C2090.73 964.6 2087.39 985.747 2080.32 1005.9C2061.34 1060.02 2022.79 1123.67 1971.43 1115.2C1949.45 1111.58 1929.42 1096.87 1908.9 1087C1887.78 1076.83 1865.97 1071.16 1844.01 1064.94C1823.49 1059.13 1807.13 1050.86 1793.88 1028.69C1787.54 1018.1 1788.1 1005.43 1787.54 992.443C1786.62 971.11 1786.05 949.654 1786.27 928.391Z" stroke="#5BE7C3" stroke-width="2"/>
<path fill-rule="evenodd" clip-rule="evenodd" d="M1806.76 922.639C1815.01 854.884 1845.66 780.915 1890.72 741.566C1943.73 695.279 2001.15 656.302 2064.48 645.097C2093.84 639.902 2126.01 637.345 2153.71 654.335C2174.8 667.257 2199.29 686.573 2210.89 713.736C2239.28 780.178 2176.14 833.07 2140.16 863.808C2120.79 880.356 2096.13 896.481 2081.54 920.647C2073.07 934.658 2068.74 953.191 2061.9 968.58C2041.18 1015.21 2007.07 1052.83 1964.57 1059.55C1944.93 1062.66 1925.13 1058.82 1905.64 1055.76C1885.68 1052.63 1865.47 1050.94 1845.63 1046.57C1829.8 1043.09 1811.14 1037.19 1805.31 1015.27C1797.95 987.652 1803.39 950.309 1806.76 922.639Z" stroke="#5ACEF2" stroke-width="2"/>
<path fill-rule="evenodd" clip-rule="evenodd" d="M1826.85 911.756C1838.88 848.055 1864.37 785.918 1907.21 747.89C1929.93 727.725 1956.3 713.805 1981.62 700.051C2010.32 684.464 2040.31 672.365 2070.94 666.364C2109.07 658.888 2170.83 652.149 2190.76 708.348C2210.53 764.131 2160.56 813.502 2131.01 841.637C2112.06 859.66 2091.79 876.203 2073.69 895.906C2063.87 906.588 2056.31 918.931 2048 931.46C2025.05 966.173 1992.32 993.654 1958.96 1008.32C1926.63 1022.55 1886.64 1028.84 1852.51 1024.14C1837.78 1022.12 1827.26 1015.31 1822.8 995.931C1816.63 968.995 1821.88 938.07 1826.85 911.756Z" stroke="#F1B170" stroke-width="2"/>
<path fill-rule="evenodd" clip-rule="evenodd" d="M1846.81 894.599C1858.77 838.513 1884.56 787.285 1922.17 753.623C1964.33 715.888 2018.62 694.919 2068.52 684.256C2095.05 678.592 2152.53 663.236 2166.05 707.185C2179.57 751.133 2140.48 794.443 2117.99 818.285C2090.69 847.177 2061.25 875.074 2031.85 900.997C2006.31 923.536 1979.05 946.58 1951.38 963.986C1935.78 973.86 1919.52 981.922 1902.81 988.076C1890.43 992.597 1874.69 999.34 1861.72 995.975C1828.99 987.476 1841.1 921.416 1846.81 894.599Z" stroke="#FF8062" stroke-width="2"/>
<path fill-rule="evenodd" clip-rule="evenodd" d="M1871.46 877.804C1897.69 771.737 1980.8 719.572 2060.82 701.389C2079.41 697.169 2131.54 681.951 2141.93 714.352C2152 745.767 2119.97 783.022 2104.98 800.673C2058.51 855.368 2001.09 895.922 1946.69 936.098C1929.71 948.638 1899.08 975.851 1878.02 963.298C1855.15 949.644 1866.02 899.797 1871.46 877.804Z" stroke="#5ACEF2" stroke-width="2"/>
<path fill-rule="evenodd" clip-rule="evenodd" d="M1898.33 857.387C1921.14 779.278 1987.49 734.479 2048.49 719.71C2063.43 716.097 2101.38 704.846 2112.7 726.643C2123.17 746.806 2098.18 776.023 2088.83 787.633C2068.01 813.486 2043.34 834.783 2018.97 855.254C1996.44 874.193 1973.66 893.607 1949.95 909.625C1937.46 918.057 1914.04 936.048 1899.85 923.029C1884.57 909.023 1893.26 874.732 1898.33 857.387Z" stroke="#5ACEF2" stroke-width="2"/>
<path fill-rule="evenodd" clip-rule="evenodd" d="M1164.85 988.572C1164.22 938.531 1143.66 886.524 1153.81 835.535C1162.15 793.658 1204.12 790.162 1229.3 771.189C1249.31 756.116 1260.67 729.414 1271.49 703.795C1281.21 680.795 1289.94 657.103 1300.18 634.48C1306.81 619.855 1318.2 591.137 1332.58 590.618C1346.34 590.119 1358.96 612.498 1366.96 625.727C1377.38 642.971 1386.63 661.355 1396.75 678.874C1413.81 708.425 1434.28 730.298 1457.72 751C1484.39 774.555 1511.5 797.306 1539.05 819.252C1559.34 835.458 1579.77 851.543 1599.26 869.35C1611.5 880.524 1638.49 901.488 1638.61 922.087C1638.67 931.916 1631.48 942.802 1626.62 950.658C1618.41 963.958 1609.05 976.118 1599.66 988.015C1582.17 1010.18 1563.93 1031.33 1545.9 1052.74C1522.49 1080.53 1500.13 1107.87 1479.55 1139.42C1458.28 1172.08 1437.95 1205.81 1417.21 1239.08C1403.16 1261.62 1389.13 1286.93 1368.87 1300.76C1343.49 1318.05 1322.66 1299.82 1297 1299.61C1274.92 1299.42 1276.55 1233.24 1273.74 1214.84C1270.93 1196.21 1264.72 1178.87 1262.32 1160.2C1259.32 1136.89 1259.28 1113.04 1258.54 1089.49C1257.65 1060.67 1257.29 1033.24 1233.49 1022.25C1219.94 1016.01 1205.28 1014.7 1191.26 1010.96C1182.18 1008.53 1165.04 1004.38 1164.85 988.572Z" stroke="#FF8062" stroke-width="2"/>
<path fill-rule="evenodd" clip-rule="evenodd" d="M1175.7 979.674C1173.39 937.727 1159.71 884.038 1172.64 840.738C1183.69 803.736 1218.23 798.939 1241.49 779.501C1260.69 763.469 1269.24 737.234 1278.84 711.46C1286.54 690.785 1294.01 669.911 1302.75 649.897C1309.19 635.147 1319.03 610.246 1332.42 607.193C1344.46 604.448 1357.38 626.432 1364.14 637.616C1374 653.943 1382.43 671.675 1391.14 689.034C1406.45 719.528 1422.12 746.949 1444.53 769.35C1467.03 791.846 1491.65 808.667 1516.53 826.174C1535.99 839.872 1555.36 853.968 1573.85 869.782C1587.63 881.556 1607.43 896.626 1613.74 917.622C1618.73 934.232 1593.42 961.794 1585.96 971.523C1570.59 991.525 1554.32 1010.3 1538.01 1028.96C1518.13 1051.7 1497.61 1071.59 1480.06 1097.53C1448.65 1143.91 1422.41 1201.66 1382 1236.13C1357.63 1256.92 1330.51 1262.24 1303.4 1259.13C1292.67 1257.9 1290.09 1238.29 1288.74 1226.86C1286.49 1207.86 1286.21 1188.54 1284.48 1169.47C1282.86 1151.62 1279.26 1134.65 1276.36 1117.15C1273.43 1099.41 1272.61 1081.23 1270.45 1063.37C1269.11 1052.29 1267.78 1039.38 1261.93 1030.47C1255.88 1021.24 1245.89 1017.38 1237.16 1014.44C1220.76 1008.97 1177.33 1009.28 1175.7 979.674Z" stroke="#5BE7C3" stroke-width="2"/>
<path fill-rule="evenodd" clip-rule="evenodd" d="M1189.67 962.112C1185.78 923.608 1180.33 875.652 1196.18 840.177C1209.14 811.171 1236.78 804.914 1256.52 786.014C1272.94 770.297 1279.15 745.3 1287.3 722.071C1293.99 703.018 1300.71 683.881 1308.81 665.75C1314.96 652 1322.88 633.356 1335.09 628.559C1345.53 624.46 1357.32 642.822 1363.1 651.961C1372.95 667.537 1380.98 684.989 1388.96 702.211C1402.01 730.391 1414.02 760.492 1432.59 783.414C1450.64 805.657 1472.07 818.786 1493.91 833.548C1510.64 844.859 1527.26 856.604 1543.03 870.092C1555.13 880.442 1570.12 892.707 1576.43 909.928C1581.88 924.781 1567.88 942.361 1560.89 952.839C1549.34 970.131 1536.52 985.995 1523.87 1001.92C1510.23 1019.11 1495.12 1034.96 1481.92 1052.56C1454.15 1089.61 1431.97 1130.63 1397.75 1159.02C1375.59 1177.41 1345.77 1194.11 1319.57 1191.11C1300.73 1188.94 1301.97 1135 1300.16 1117.77C1297.19 1089.59 1291.44 1059.98 1282.31 1034.02C1274.48 1011.78 1255.85 1004.92 1238.72 999.931C1227.98 996.799 1216.73 995.108 1206.35 990.267C1194.33 984.656 1191.3 978.252 1189.67 962.112Z" stroke="#5ACEF2" stroke-width="2"/>
<path fill-rule="evenodd" clip-rule="evenodd" d="M1202.7 944.066C1200.38 911.513 1200.9 873.018 1215.91 844.859C1229.07 820.193 1252.49 813.699 1269.14 794.269C1282.14 779.11 1287.25 754.393 1294.24 734.346C1302.79 709.835 1314.76 664.564 1336.32 655.34C1356.37 646.765 1377.34 701.542 1384.6 717.877C1396.09 743.731 1405.7 772.083 1419.64 795.958C1431.64 816.513 1447.72 827.875 1464.79 840.086C1486.55 855.682 1519.6 874.174 1531.23 904.569C1539.91 927.218 1511.7 960.888 1502.07 976.581C1492 992.973 1484.41 1012.4 1474.02 1028.22C1457.61 1053.17 1431.03 1073.26 1409.08 1088.6C1387.75 1103.51 1360.04 1120.02 1335.83 1119.04C1319.93 1118.39 1316.9 1086.61 1313.5 1071.09C1308.64 1049.02 1302.18 1029.24 1288.29 1014.23C1274.15 998.946 1257.49 991.746 1239.97 985.445C1230.98 982.233 1220.73 979.728 1212.68 973.24C1203.79 966.181 1203.59 956.578 1202.7 944.066Z" stroke="#F1B170" stroke-width="2"/>
<path fill-rule="evenodd" clip-rule="evenodd" d="M1218.57 925.3C1218.7 897.177 1223.67 867.187 1238.41 845.493C1250.69 827.424 1269.9 821.384 1281.65 802.912C1290.96 788.287 1295.7 767.757 1301.93 750.774C1309.55 729.963 1320.33 693.607 1339.28 686.384C1357.78 679.353 1374.14 719.397 1381.24 735.242C1391.62 758.476 1400.03 783.104 1410.51 806.274C1418.72 824.452 1428.76 836.168 1442.13 847.884C1457.82 861.645 1479.72 876.889 1488.1 899.657C1494.15 916.141 1479.52 942.481 1474.2 957.003C1470.64 966.757 1467.38 976.664 1465.59 987.236C1464.2 995.468 1464.06 1003.09 1460.02 1010.16C1449.85 1027.94 1427.54 1030.26 1412.41 1036.12C1392.3 1043.9 1370.98 1052.74 1349.94 1054.43C1337.01 1055.48 1330.42 1040.07 1323.04 1029.23C1314.32 1016.41 1301.97 1007.2 1291.19 997.527C1276.96 984.743 1261.48 976.792 1245.46 968.649C1238.23 964.974 1229.74 961.369 1224.14 954.063C1218.3 946.489 1218.53 935.45 1218.57 925.3Z" stroke="#FF8062" stroke-width="2"/>
<path fill-rule="evenodd" clip-rule="evenodd" d="M1235.25 908.603C1237.8 884.983 1245.77 862.408 1259.21 845.71C1269.52 832.891 1283.21 825.673 1291.48 810.271C1299.19 795.913 1304.56 779.587 1310.93 764.236C1317.67 748.007 1327.68 720.881 1343.22 716.464C1359.97 711.708 1372.87 739.071 1380.02 754.237C1389.04 773.402 1395.9 794.022 1403.97 813.847C1410.05 828.624 1417.8 842.138 1426.98 853.94C1436.59 866.382 1449.64 878.297 1454.51 895.405C1458.81 910.558 1450.76 928.89 1449.34 944.254C1447.82 960.669 1450.48 977.911 1442.06 992.006C1424.68 1021.07 1381.06 1015.68 1356.13 1016.31C1331.53 1016.95 1311.75 999.16 1291.84 982.238C1278.69 971.066 1265 961.605 1251.52 951.195C1237.77 940.575 1233 929.39 1235.25 908.603Z" stroke="#5ACEF2" stroke-width="2"/>
<path fill-rule="evenodd" clip-rule="evenodd" d="M1250.74 895.086C1258.3 860.867 1281.89 842.68 1298.76 816.821C1312.56 795.651 1322.91 751.809 1346.15 746.01C1372.54 739.428 1388.34 797.517 1397.52 819.932C1407.7 844.791 1425.83 865.012 1433.37 891.327C1437.33 905.139 1433.93 918.027 1431.82 931.832C1429.51 946.991 1427.77 962.49 1419.78 974.692C1404.06 998.704 1373.36 998.537 1351.25 999.198C1328.36 999.884 1308.12 983.429 1289.88 967.007C1270.54 949.615 1243 930.177 1250.74 895.086Z" stroke="#5ACEF2" stroke-width="2"/>
<path fill-rule="evenodd" clip-rule="evenodd" d="M1263.39 885.806C1271.91 861.427 1289.8 841.607 1304.31 822.896C1316.43 807.298 1329.46 775.897 1347.93 773.659C1369.65 771.019 1382.8 804.549 1391.35 825.109C1399.75 845.312 1411.87 866.643 1416.53 888.816C1421.38 911.914 1408.45 943.022 1396.12 959.366C1382.37 977.592 1359.87 984.326 1340.56 983.599C1320.35 982.859 1301.8 967.797 1286.49 952.173C1270.13 935.471 1253.49 914.108 1263.39 885.806Z" stroke="#FF8062" stroke-width="2"/>
<path fill-rule="evenodd" clip-rule="evenodd" d="M1275.14 881.214C1283.27 860.937 1297.36 843.784 1310.36 828.483C1320.39 816.671 1335.19 796.585 1349.66 796.093C1365.58 795.55 1379.07 812.409 1385.4 829.69C1391.63 846.735 1398.21 868.105 1399.14 886.804C1401.17 927.525 1359.88 973.139 1328.88 969.428C1299.49 965.908 1258.92 921.616 1275.14 881.214Z" stroke="#5ACEF2" stroke-width="2"/>
<path fill-rule="evenodd" clip-rule="evenodd" d="M1285.99 878.981C1297.21 852.561 1324.46 814.896 1349.69 814.002C1378.64 812.979 1385.91 854.893 1382.14 885.268C1378.3 916.269 1344.92 961.141 1318.3 955.078C1292.32 949.161 1272.7 910.314 1285.99 878.981Z" stroke="#5BE7C3" stroke-width="2"/>
</g>
</svg>
