<svg width="51" height="51" viewBox="0 0 51 51" fill="none" xmlns="http://www.w3.org/2000/svg">
<g clip-path="url(#clip0_793_1072)">
<path d="M38.2493 15.9393V7.97101C38.2493 7.09091 37.5358 6.37735 36.6556 6.37735H35.062V1.59635C35.062 0.716248 34.3485 0.00268395 33.4683 0.00268395C31.2121 0.00268395 27.7568 -0.170229 23.7007 2.25971C21.1793 1.5092 19.3961 1.59635 17.5316 1.59635C16.6514 1.59635 15.938 2.30991 15.938 3.19002V6.37735H14.3443C13.4641 6.37735 12.7506 7.09091 12.7506 7.97101V15.9393C12.7506 22.4297 17.6258 27.8026 23.9063 28.5893V49.4063C23.9063 50.2864 24.6198 51 25.5 51C26.3802 51 27.0936 50.2864 27.0936 49.4063V43.8285H29.4841C34.3172 43.8285 38.2493 39.8964 38.2493 35.0633V32.6728C38.2493 31.7927 37.5358 31.0792 36.6556 31.0792H32.6715C30.5544 31.0792 28.6102 31.8337 27.0936 33.0879V28.5885C33.3648 27.8119 38.2493 22.4657 38.2493 15.9393ZM35.062 15.9393C35.062 18.7756 33.8077 21.3372 31.8252 23.0935C31.8565 22.8378 31.8746 22.5781 31.8746 22.314C31.8746 18.2781 30.3658 14.5886 27.8837 11.7778C29.988 10.3419 32.483 9.56468 35.062 9.56468V15.9393ZM31.8746 3.19002V6.69887C31.5801 6.75883 31.2877 6.82726 30.9976 6.90366C29.9637 5.74636 28.7846 4.76037 27.4972 3.96364C28.8888 3.45486 30.366 3.19002 31.8746 3.19002ZM19.1253 4.78368C22.2914 4.78368 25.3661 5.93979 27.7573 8.14871C26.9681 8.55599 26.2114 9.0308 25.4953 9.56916C23.6424 8.1761 21.4773 7.17707 19.1253 6.69777V4.78368ZM15.938 15.9393V9.56468C22.9679 9.56468 28.6873 15.2839 28.6873 22.314C28.6873 24.0949 27.2167 25.5461 25.4162 25.4998C19.8175 25.3616 15.938 20.9135 15.938 15.9393ZM32.6715 34.2665H35.062V35.0633C35.062 38.1389 32.5598 40.6412 29.4841 40.6412H27.0936V39.8443C27.0936 36.7688 29.5959 34.2665 32.6715 34.2665Z" fill="white"/>
</g>
<defs>
<clipPath id="clip0_793_1072">
<rect width="51" height="51" fill="white"/>
</clipPath>
</defs>
</svg>
