<svg width="375" height="741" viewBox="0 0 375 741" fill="none" xmlns="http://www.w3.org/2000/svg">
<rect width="375" height="741" fill="white"/>
<mask id="mask0_793_1375" style="mask-type:alpha" maskUnits="userSpaceOnUse" x="1" y="0" width="375" height="314">
<rect x="1" width="375" height="314" fill="white"/>
</mask>
<g mask="url(#mask0_793_1375)">
<path fill-rule="evenodd" clip-rule="evenodd" d="M119.455 -413.671C127.199 -422.84 123.044 -444.094 122.043 -454.082C120.065 -473.833 116.967 -493.153 114.107 -512.539C111.247 -531.924 108.333 -551.308 106.813 -571.213C105.824 -584.135 104.372 -598.977 108.171 -612.995C116.272 -642.866 145.241 -612.763 153.84 -606.252C175.719 -589.694 199.19 -568.791 228.196 -563.259C245.512 -559.957 259.627 -567.117 270.906 -585.456C274.581 -591.414 277.348 -599.515 283.743 -602.925C290.572 -606.568 298.243 -605.497 304.181 -604.104C325.83 -599.014 343.921 -585.168 360.694 -572.572C378.797 -559.01 395.889 -543.932 413.034 -529.489C420.304 -523.365 430.784 -520.364 440.051 -517.287C452.199 -513.253 464.623 -509.761 476.963 -506.105C504.095 -498.042 532.221 -489.933 554.967 -474.397C569.212 -464.668 581.897 -450.646 581.789 -429.954C581.735 -419.564 576.746 -408.295 572.89 -397.793C568.24 -385.1 563.369 -372.435 559.079 -359.698C545.263 -318.674 537.272 -273.898 564.337 -248.283C568.432 -244.409 573.272 -241.565 577.657 -238.073C580.448 -235.846 582.129 -232.922 579.949 -228.312C574.485 -216.743 553.867 -208.682 544.243 -204.002C523.176 -193.76 501.817 -185.029 480.624 -175.458C466.607 -169.13 445.626 -162.035 434.59 -149.246C424.757 -137.852 429.266 -119.733 430.755 -108.734C432.154 -98.4312 436.544 -81.9449 428.042 -70.6403C423.919 -65.1592 417.636 -63.0551 412.061 -62.0167C402.301 -60.2101 393.285 -60.7481 383.301 -57.7076C366.923 -52.7162 348.193 -42.613 336.564 -27.0064C328.507 -16.1919 327.229 -5.70756 327.41 5.50709C327.485 10.2214 327.785 13.7667 324.184 18.2535C318.469 25.3809 310.142 30.9849 302.955 35.9865C277.235 53.8883 249.606 68.8515 222.264 81.5082C208.6 87.8338 194.577 93.7991 180.65 97.2622C171.515 99.5457 159.981 101.701 153.623 96.2778C146.254 90.0088 141.44 79.8668 136.509 71.1498C127.301 54.8657 118.905 37.9541 110.687 20.9405C91.6858 -18.4112 73.8981 -58.6088 57.3234 -99.6524C45.6645 -128.581 33.5727 -157.906 26.2638 -189.397C24.8554 -195.559 24.07 -202.014 23.9183 -208.676C23.6974 -215.724 20.7365 -221.313 17.3275 -226.501C-3.83049 -258.704 -40.072 -278.63 -71.7321 -298.725C-79.7665 -303.827 -87.8055 -308.925 -95.6039 -314.345C-102.308 -319.005 -111.194 -323.573 -114.992 -331.298C-122.479 -346.514 -96.0264 -356.614 -85.089 -360.594C-46.58 -374.61 -7.14904 -380.641 31.2353 -388.39C49.5008 -392.092 67.808 -395.708 86.1342 -400.448C95.6686 -402.906 112.666 -405.633 119.455 -413.671Z" stroke="#5BE7C3" stroke-width="2"/>
<path fill-rule="evenodd" clip-rule="evenodd" d="M126.081 -410.691C129.582 -424.385 127.37 -438.591 126.209 -451.177C124.541 -469.292 122.104 -487.134 120.045 -505.109C118.099 -522.106 116.218 -539.222 116.003 -556.827C115.871 -567.563 115.398 -580.671 120.607 -591.953C131.894 -616.41 159.052 -588.14 166.826 -582.418C186.147 -568.186 207.068 -550.894 232.786 -546.948C248.846 -544.485 262.338 -551.577 272.816 -568.446C276.442 -574.282 278.801 -579.89 284.952 -583.532C292.069 -587.748 299.941 -587.455 306.49 -586.402C327.009 -583.109 344.486 -571.249 360.388 -560.225C376.815 -548.837 393.501 -536.465 407.231 -522.893C412.723 -517.468 421.584 -514.207 429.005 -511.172C440.428 -506.508 452.144 -502.37 463.704 -497.957C487.201 -488.991 510.968 -479.392 530.349 -464.113C544.342 -453.082 556.147 -438.308 558.406 -418.101C560.689 -397.616 551.576 -376.624 544.431 -355.377C532.067 -318.653 518.511 -272.747 538.921 -245.403C542.015 -241.255 546.113 -238.591 549.767 -235.11C551.648 -233.322 553.6 -231.065 552.418 -227.647C549.349 -218.775 531.867 -212.651 525.13 -209.586C506.513 -201.115 487.66 -194.035 468.957 -186.107C454.105 -179.813 436.741 -173.552 423.536 -162.347C407.511 -148.751 414.848 -123.135 411.328 -106.957C405.223 -78.9048 376.355 -84.5198 358.909 -83.5098C338.877 -82.3524 313.37 -70.8508 309.38 -46.0886C307.855 -36.6188 309.351 -28.9294 304.109 -19.338C295.911 -4.33793 281.516 8.52759 268.648 19.3026C249.298 35.4945 228.237 49.8779 206.712 61.0785C191.298 69.0947 166.674 81.2788 155.786 69.5317C148.45 61.6324 143.149 51.0649 137.852 41.2027C129.918 26.4382 122.687 11.1507 115.693 -4.28859C99.5184 -39.8937 84.7473 -76.5463 71.6878 -114.15C62.7802 -139.811 49.5101 -225.001 47.0685 -229.714C39.7852 -243.765 26.4144 -253.756 14.3082 -262.838C-1.79476 -274.92 -19.0903 -285.444 -36.2218 -296.136C-44.3716 -301.232 -52.7595 -306.121 -60.4876 -311.79C-65.9875 -315.826 -73.0657 -321.296 -74.2253 -329.131C-76.4915 -344.421 -51.5311 -353.76 -41.065 -357.791C-8.9882 -370.157 23.7799 -376.621 55.9421 -384.372C71.7292 -388.18 87.614 -391.878 103.412 -397.06C109.788 -399.155 123.92 -402.23 126.081 -410.691Z" stroke="#5ACEF2" stroke-width="2"/>
<path fill-rule="evenodd" clip-rule="evenodd" d="M136.841 -410.088C140.397 -440.428 134.825 -469.984 133.198 -499.234C132.384 -513.917 131.709 -528.862 133.276 -544.194C134.089 -552.167 135.173 -562.204 140.467 -569.779C154.631 -590.043 179.251 -564.729 187.871 -558.623C204.54 -546.823 222.936 -532.98 245.131 -530.588C258.695 -529.13 271.09 -535.13 280.217 -549.112C284.267 -555.315 287.204 -561.013 293.7 -564.961C300.28 -568.961 307.464 -569.622 313.86 -569.259C332.244 -568.221 348.44 -559.111 362.742 -550.423C379.505 -540.213 395.161 -528.477 409.582 -515.308C422.219 -503.782 439.487 -497.826 455.041 -490.351C475.644 -480.447 496.077 -469.723 512.814 -454.479C526.03 -442.436 536.647 -427.123 540.045 -407.541C543.478 -387.621 538.029 -366.812 530.887 -345.431C520.09 -313.108 504.713 -270.568 518.188 -243.341C520.145 -239.379 522.901 -236.781 525.892 -233.837C527.346 -232.408 529.316 -230.672 528.272 -227.889C525.758 -221.188 510.468 -217.057 505.614 -215.214C490.118 -209.329 474.535 -204.377 459.012 -198.768C444.52 -193.531 429.144 -188.306 415.368 -179.442C393.433 -165.32 402.375 -138.544 386.443 -120.86C376.55 -109.882 361.516 -108.764 350.298 -108.686C336.493 -108.598 321.185 -113.842 306.543 -104.709C295.636 -97.9058 295.678 -88.5117 293.244 -78.3792C289.121 -61.2108 275.703 -44.5984 263.259 -31.2519C246.444 -13.215 226.913 2.98891 206.567 15.4072C197.345 21.0376 187.277 26.4906 177.473 28.6172C168.287 30.6121 162.934 28.5719 158.119 22.4675C143.382 3.77438 133.904 -21.4489 124.423 -44.8416C112.512 -74.2344 101.885 -104.538 93.202 -135.849C87.2817 -157.2 81.5131 -179.369 80.3737 -202.879C80.0775 -209.008 79.9562 -215.497 81.4444 -221.982C82.5527 -226.866 84.1767 -230.294 82.8404 -234.758C78.8773 -247.984 65.327 -256.934 55.3636 -264.385C39.4358 -276.304 22.243 -286.588 5.28349 -297.105C-4.62069 -303.233 -24.7094 -313.095 -23.1573 -329.11C-21.8146 -342.937 -1.92384 -351.539 8.31015 -356.019C34.1935 -367.347 60.7624 -374.013 86.8843 -381.926C98.8561 -385.553 111.082 -389.07 122.918 -394.356C125.938 -395.701 130.241 -397.228 132.887 -399.733C135.912 -402.608 136.397 -406.354 136.841 -410.088Z" stroke="#5BE7C3" stroke-width="2"/>
<path fill-rule="evenodd" clip-rule="evenodd" d="M134.118 -404.637C136.748 -431.901 134.336 -458.189 135.153 -485.101C135.52 -497.167 136.129 -509.634 139.206 -522.117C140.859 -528.83 143.405 -536.886 149.035 -542.189C165.194 -557.411 185.925 -537.159 195.659 -530.575C210.11 -520.774 226.536 -509.31 245.935 -508.428C258.642 -507.849 268.97 -514.172 277.158 -526.694C285.939 -540.126 296.859 -546.01 310.423 -546.132C327.424 -546.278 342.721 -539.219 356.177 -532.003C372.377 -523.294 387.356 -512.8 400.933 -500.647C414.136 -488.827 429.745 -480.689 444.799 -471.225C464.757 -458.676 484.177 -444.339 497.269 -424.125C508.667 -406.525 513.889 -384.665 510.955 -360.226C507.9 -334.711 495.776 -309.606 489.213 -284.088C485.118 -268.172 480.095 -246.784 486.613 -233.698C488.787 -229.334 496.685 -226.008 487.851 -221.15C482.799 -218.371 476.818 -217.251 471.658 -215.857C463.32 -213.602 454.986 -211.601 446.648 -209.475C428.877 -204.94 410.327 -200.65 392.792 -192.296C370.709 -181.783 370.912 -159.061 354.869 -143.001C346.237 -134.357 335.05 -131.113 324.93 -129.698C318.38 -128.778 311.942 -128.631 305.614 -128.768C299.005 -128.91 292.324 -130.418 285.422 -129.204C275.592 -127.482 271.808 -118.765 266.284 -110.428C256.58 -95.7753 245.447 -81.9755 233.138 -69.3419C218.053 -53.8547 201.079 -39.1659 182.904 -28.8918C175.83 -24.8904 167.89 -21.0229 160.569 -20.5332C153.248 -20.0434 149.332 -23.8348 145.74 -28.9133C135.076 -43.9629 128.354 -63.5901 121.945 -82.2247C113.925 -105.55 107.181 -129.73 102.402 -154.776C99.1046 -172.065 96.3467 -190.059 97.2996 -208.887C97.5786 -214.365 98.1806 -219.972 99.5975 -225.6C100.567 -229.46 102.832 -233.581 102.625 -237.279C101.964 -248.835 88.1245 -257.325 80.6712 -263.026C65.7971 -274.406 48.7875 -282.82 33.8341 -294.069C25.6722 -300.208 12.5131 -309.379 14.2292 -322.95C15.8403 -335.71 31.6807 -344.489 41.6051 -349.662C61.1157 -359.834 81.3489 -366.472 101.215 -374.457C109.387 -377.745 118.092 -381.054 125.883 -386.119C132.82 -390.636 133.442 -397.648 134.118 -404.637Z" stroke="#5ACEF2" stroke-width="2"/>
<path fill-rule="evenodd" clip-rule="evenodd" d="M136.814 -401.861C140.13 -425 140.056 -448.108 143.512 -471.551C145.538 -485.277 148.716 -508.548 163.796 -517.502C180.359 -527.347 197.238 -513.64 207.76 -506.617C220.285 -498.259 235.21 -488.698 252.334 -489.076C257.749 -489.194 263.462 -490.587 268.641 -494.419C274.184 -498.52 276.687 -504.103 280.873 -509.367C289.654 -520.41 301.85 -524.898 313.321 -525.347C329.535 -525.984 344.271 -520.271 357.358 -513.896C372.172 -506.659 385.845 -497.672 398.183 -487.064C409.981 -476.935 421.994 -467.312 434.19 -457.626C450.148 -444.969 465.139 -430.733 475.559 -412.507C485.82 -394.549 490.754 -373.056 488.779 -349.295C486.849 -326.111 478.837 -302.581 469.681 -279.46C464.484 -266.337 457.392 -246.153 461.274 -233.989C462.998 -228.578 466.735 -225.67 457.769 -223.04C446.479 -219.729 434.739 -219.352 423.593 -217.787C407.513 -215.525 391.072 -213.257 374.824 -208.126C364.448 -204.849 356.689 -199.704 349.259 -190.355C343.601 -183.23 338.833 -175.472 332.382 -168.976C317.241 -153.729 297.977 -150.828 280.497 -147.736C269.253 -145.749 259.844 -144.942 248.881 -137.836C235.921 -129.438 224.076 -118.384 211.869 -108.603C198.463 -97.8629 184.233 -86.9326 169.2 -80.2162C155.817 -74.2359 146.121 -74.6974 139.669 -84.8644C129.604 -100.718 125 -122.596 121.071 -142.556C117.067 -162.868 114.314 -184.218 115.551 -206.404C116.22 -218.383 119.722 -230.138 121.469 -242.132C123.652 -257.2 106.529 -265.356 97.5261 -271.582C82.581 -281.918 30.4655 -308.455 62.912 -338.495C76.455 -351.033 93.9861 -358.324 109.271 -366.553C115.612 -369.97 123.713 -373.652 129.147 -379.126C135.065 -385.088 135.812 -394.899 136.814 -401.861Z" stroke="#FF8062" stroke-width="2"/>
<path fill-rule="evenodd" clip-rule="evenodd" d="M26.0773 113.035C-1.58394 112.206 -29.4367 107.251 -56.3808 103.376C-95.7544 97.7123 -135.136 91.2927 -172.307 80.4036C-192.235 74.5637 -218.857 67.937 -230.058 49.7025C-234.154 43.0362 -234.571 33.0568 -236.565 25.1067C-239.314 14.1444 -242.378 3.34209 -245.42 -7.46051C-251.528 -29.1231 -257.763 -50.7276 -263.106 -72.795C-265.677 -83.4223 -266.968 -95.1501 -270.428 -105.294C-272.449 -111.223 -278.325 -114.253 -282.836 -117.824C-293.287 -126.094 -304.005 -134.037 -314.638 -142.081C-327.642 -151.921 -340.712 -161.741 -352.889 -172.582C-358.38 -177.473 -373.209 -187.829 -370.88 -196.813C-369.624 -201.649 -360.46 -204.502 -356.216 -205.819C-348.42 -208.242 -340.57 -209.723 -332.81 -211.199C-314.864 -214.612 -296.817 -217.048 -278.763 -222.554C-269.484 -225.387 -257.794 -228.548 -253.169 -239.256C-248.496 -250.071 -246.724 -261.37 -242.225 -272.283C-237.05 -284.842 -229.664 -296.209 -222.296 -307.928C-216.852 -316.59 -213.641 -325.637 -210.039 -334.828C-206.057 -344.986 -202.114 -355.292 -196.941 -365.176C-193.524 -371.706 -187.148 -383.257 -179.861 -383.032C-169.503 -382.716 -161.337 -368.891 -155.545 -361.46C-147.536 -351.195 -140.066 -340.441 -132.249 -330.003C-126.577 -322.423 -121.013 -314.668 -114.022 -308.4C-102.754 -298.295 -90.3055 -289.501 -77.9867 -280.693C-55.1762 -264.383 -31.9744 -248.842 -10.6197 -230.676C8.08936 -214.76 27.0376 -149.431 32.8816 -135.795C44.5451 -108.576 57.1902 -81.4213 64.9475 -51.8083C67.0435 -43.7941 70.9052 -32.2072 67.2967 -22.4521C65.0752 -16.4394 62.0487 -14.4452 63.4947 -8.1228C65.4675 0.502796 71.042 7.9725 75.4871 14.8625C82.6464 25.9579 90.2589 36.672 97.6961 47.5308C112.75 69.4794 127.079 92.0098 141.654 114.358C146.06 121.114 152.858 127.563 155.858 135.414C157.799 140.468 155.309 142.634 149.955 143.25C140.563 144.333 131.188 141.395 122.829 139.459C110.581 136.621 98.597 133.19 86.6567 129.7C74.7165 126.21 62.8337 122.562 50.8826 119.076C42.9949 116.765 34.7109 113.295 26.0773 113.035Z" stroke="#FF8062" stroke-width="2"/>
<path fill-rule="evenodd" clip-rule="evenodd" d="M14.9991 98.6171C-13.6361 97.0054 -41.9036 91.0805 -69.2583 85.4908C-104.274 78.3451 -139.129 69.9162 -171.234 56.7578C-190.082 49.0286 -212.01 39.5442 -222.381 21.1988C-226.08 14.6536 -226.327 6.80556 -227.609 -1.02593C-229.065 -9.95793 -231.041 -18.6883 -233.072 -27.3547C-237.253 -45.1938 -241.793 -62.8509 -246.692 -80.3261C-249.273 -89.5984 -251.281 -100.784 -256.931 -108.046C-261.421 -113.82 -269.014 -117.451 -274.9 -121.635C-285.498 -129.17 -296.118 -136.678 -306.63 -144.323C-318.759 -153.147 -330.863 -162.065 -342.161 -171.914C-348.457 -177.404 -360.467 -185.418 -360.353 -194.669C-360.253 -202.742 -331.399 -207.699 -326.119 -208.813C-309.632 -212.289 -293.152 -214.934 -276.61 -219.577C-266.845 -222.306 -254.964 -225.621 -245.924 -232.558C-238.222 -238.472 -234.202 -249.257 -230.281 -257.445C-225.365 -267.697 -219.763 -277.894 -215.355 -288.275C-211.426 -297.523 -209.528 -307.124 -207.073 -316.481C-204.373 -326.774 -201.616 -337.226 -197.445 -347.413C-194.872 -353.676 -190.532 -364.137 -183.379 -366.109C-175.126 -368.377 -166.811 -355.234 -162.816 -350.51C-154.728 -340.908 -147.366 -330.599 -139.787 -320.528C-127.198 -303.804 -114.962 -288.134 -98.498 -275.388C-77.0546 -258.793 -54.533 -243.506 -32.8486 -227.202C-24.8365 -221.186 -16.3039 -215.537 -9.10957 -208.548C-4.98668 -204.539 -3.15681 -199.948 -3.99426 -193.813C-5.13459 -185.439 0.307267 -175.637 3.22142 -167.796C7.76766 -155.574 12.7112 -143.597 17.5806 -131.582C28.2662 -105.202 39.6301 -78.8708 46.8204 -50.3923C49.0964 -41.3839 51.8072 -31.1917 50.3058 -20.7846C49.4701 -14.9796 45.7722 -11.8486 43.8072 -6.5952C41.2349 0.325908 45.5301 8.09068 47.8398 13.0352C52.2943 22.5818 57.9852 31.281 63.7378 39.7889C76.7554 59.0388 91.1955 76.6983 106.571 93.7373C110.178 97.7256 124.598 113.179 108.619 114.944C90.9621 116.896 73.457 110.323 57.8119 106.579C43.7264 103.195 29.9279 99.4578 14.9991 98.6171Z" stroke="#5BE7C3" stroke-width="2"/>
<path fill-rule="evenodd" clip-rule="evenodd" d="M-6.98276 75.7107C-33.2228 73.4012 -58.7183 66.6428 -83.3907 59.9372C-113.33 51.7998 -142.876 42.1145 -169.576 28.0551C-186.346 19.2202 -203.94 8.42683 -213.479 -8.71484C-219.996 -20.4194 -219.168 -36.3717 -221.906 -50.1606C-224.644 -63.9496 -228.069 -77.62 -232.639 -90.4736C-235.475 -98.4508 -238.713 -106.812 -245.288 -111.67C-261.27 -123.484 -278.45 -133.853 -294.587 -145.519C-305.269 -153.228 -315.851 -161.096 -325.715 -169.827C-331.665 -175.091 -340.384 -181.682 -342.169 -190.436C-344.14 -200.115 -278.896 -212.938 -272.122 -214.865C-255.135 -219.697 -233.46 -226.849 -221.37 -243.987C-209.814 -260.372 -206.141 -276.819 -202.775 -294.497C-200.852 -304.545 -197.77 -333.138 -185.703 -338.07C-178.807 -340.889 -171.691 -331.829 -167.897 -328.009C-160.421 -320.483 -153.65 -312.217 -146.715 -304.14C-136.592 -292.376 -126.996 -279.341 -115.972 -268.535C-108.294 -261.011 -99.4229 -254.792 -91.2278 -247.848C-79.4783 -237.889 -67.8467 -227.793 -56.2333 -217.674C-46.4827 -209.178 -36.4499 -200.845 -27.6944 -191.248C-22.2447 -185.29 -19.0789 -179.626 -18.8439 -171.034C-18.638 -163.559 -15.0013 -156.19 -12.4377 -149.368C-8.20176 -138.102 -3.58416 -127.071 0.950502 -115.996C10.443 -92.8073 20.2859 -69.6368 27.1897 -44.8759C30.3436 -33.5754 36.8422 -15.9816 28.2677 -2.3817C25.1764 2.52261 24.0311 4.80339 25.1532 10.0415C26.7466 17.4757 30.8955 23.7459 34.8732 29.5125C44.1459 42.956 56.9184 52.9905 66.2026 66.3795C69.9702 71.848 73.9367 80.1072 62.8406 81.8518C49.8783 83.905 36.858 80.0184 25.0748 78.0749C19.1938 77.1031 13.3224 75.8822 7.19803 75.5939C2.48867 75.38 -2.34009 76.1342 -6.98276 75.7107Z" stroke="#5ACEF2" stroke-width="2"/>
<path fill-rule="evenodd" clip-rule="evenodd" d="M-34.8911 45.721C-58.0308 42.2908 -80.2815 35.1805 -101.663 27.6455C-125.404 19.2674 -148.575 9.34415 -169.214 -4.04787C-183.469 -13.2895 -197.561 -24.4259 -205.657 -40.1439C-210.775 -50.0851 -210.316 -61.4436 -212.23 -72.9253C-215.109 -90.2665 -220.352 -106.526 -234.057 -115.314C-249.419 -125.17 -264.431 -135.53 -279.091 -146.394C-287.935 -152.946 -296.69 -159.667 -304.731 -167.184C-309.817 -171.934 -316.287 -178.151 -318.202 -185.233C-320.76 -194.713 -270.181 -207.261 -263.298 -209.506C-246.227 -215.071 -230.578 -222.837 -215.229 -234.668C-202.706 -244.323 -199.934 -257.93 -197.705 -271.226C-196.325 -279.485 -195.198 -302.255 -185.838 -306.543C-180.686 -308.917 -174.869 -303.618 -171.482 -301.082C-165.028 -296.246 -159.207 -290.613 -153.224 -285.223C-144.398 -277.255 -133.2 -270.891 -125.48 -261.779C-108.367 -241.587 -90.9311 -221.877 -72.8201 -202.609C-62.8352 -191.989 -52.6882 -181.424 -43.7767 -169.742C-40.5777 -165.548 -37.2926 -161.194 -35.2172 -156.096C-33.8803 -152.819 -34.3746 -149.595 -33.8315 -146.141C-31.2302 -129.689 -22.2771 -114.747 -15.9367 -100.227C-7.50698 -80.9246 1.09255 -61.6666 8.05286 -41.4146C11.7135 -30.7623 17.7482 -16.9675 15.2342 -3.72131C14.475 0.280939 11.9855 1.88164 10.7453 5.29531C9.3122 9.23049 11.9281 12.9929 13.3984 15.6796C16.7337 21.7797 35.0001 42.2523 16.014 45.2411C6.96277 46.658 -1.72387 45.1177 -10.3917 44.9095C-13.5306 44.8349 -16.6298 44.8077 -19.9072 45.5219C-25.3963 46.7246 -29.6024 46.4969 -34.8911 45.721Z" stroke="#F1B170" stroke-width="2"/>
<path fill-rule="evenodd" clip-rule="evenodd" d="M-64.4402 13.5468C-107.263 3.41555 -151.081 -15.9437 -181.906 -45.6368C-192.154 -55.5136 -201.888 -67.6603 -204.737 -83.3157C-206.41 -92.5548 -206.475 -101.433 -211.725 -108.722C-215.516 -113.984 -221.822 -117.035 -227.059 -120.654C-234.645 -125.894 -242.172 -131.212 -249.603 -136.655C-258.807 -143.414 -267.919 -150.338 -276.393 -157.987C-282.447 -163.454 -291.2 -170.542 -292.851 -179.532C-294.826 -190.261 -257.483 -200.938 -251.444 -203.363C-236.806 -209.241 -224.121 -216.21 -211.802 -227.822C-208.208 -231.201 -203.548 -233.834 -200.529 -237.753C-197.449 -241.758 -196.333 -246.707 -195.419 -251.139C-194.217 -256.943 -193.745 -272.735 -187.483 -275.733C-184.024 -277.388 -179.272 -273.925 -176.476 -272.521C-171.226 -269.894 -166.333 -266.72 -161.242 -263.851C-152.6 -258.991 -141.235 -257.438 -133.91 -250.977C-114.206 -233.608 -100.875 -208.162 -85.0956 -186.992C-75.7221 -174.398 -66.0586 -161.984 -57.6345 -148.56C-54.97 -144.312 -52.2302 -139.931 -50.4265 -135.036C-49.1675 -131.62 -49.678 -127.875 -48.7355 -124.448C-45.1294 -111.298 -38.2804 -99.3525 -32.414 -87.5761C-24.807 -72.2777 -17.028 -57.0995 -9.78533 -41.5409C-5.24512 -31.7892 1.77335 -20.6372 2.79897 -8.84106C3.54885 -0.226441 -0.832127 -1.56719 -6.97171 0.639508C-10.1041 1.76315 -11.6552 4.17687 -14.3206 6.19892C-18.126 9.08553 -22.5159 9.76017 -26.548 10.2931C-32.1138 11.034 -38.1542 10.4057 -43.8083 12.3082C-45.8002 12.9768 -47.2094 14.7112 -48.8937 15.3381C-53.7974 17.1663 -60.4128 14.4994 -64.4402 13.5468Z" stroke="#FF8062" stroke-width="2"/>
<path fill-rule="evenodd" clip-rule="evenodd" d="M-91.5461 -18.8821C-123.928 -29.8953 -155.525 -47.3603 -178.972 -71.6757C-187.129 -80.1369 -194.346 -89.8133 -198.811 -101.379C-200.847 -106.634 -201.743 -111.324 -205.775 -114.966C-215.134 -123.415 -225.605 -130.616 -235.404 -138.543C-242.418 -144.215 -249.372 -150.025 -255.604 -156.582C-259.772 -160.965 -265.473 -166.817 -266.073 -173.716C-266.936 -183.753 -241.481 -193.727 -235.164 -197.092C-224.691 -202.674 -213.446 -209.218 -206.487 -220.067C-204.36 -223.385 -202.839 -226.622 -200.352 -229.735C-198.223 -232.417 -195.927 -234.612 -194.508 -237.701C-192.746 -241.528 -192.522 -249.601 -188.777 -251.318C-186.222 -252.492 -183.466 -250.305 -181.155 -249.411C-177.408 -247.96 -173.461 -246.883 -169.356 -246.189C-165.026 -245.467 -160.325 -246.044 -156.146 -244.936C-149.366 -243.132 -143.783 -238.755 -138.722 -234.432C-118.528 -217.179 -102.519 -194.487 -87.4846 -172.209C-79.6547 -160.609 -71.9294 -148.771 -65.6481 -135.936C-63.7417 -132.038 -61.4358 -127.79 -60.846 -123.085C-60.4751 -120.153 -60.9663 -117.291 -60.0491 -114.543C-52.2092 -91.0683 -36.6366 -71.5799 -25.4991 -49.9684C-22.6003 -44.3429 -5.77221 -14.064 -26.1009 -16.3415C-38.4519 -17.7238 -48.7913 -22.3711 -62.1124 -21.2214C-66.1666 -20.876 -69.1713 -20.2909 -72.8814 -17.6568C-75.345 -15.8986 -73.029 -15.883 -76.904 -15.1506C-81.5827 -14.288 -87.7731 -17.5995 -91.5461 -18.8821Z" stroke="#F1B170" stroke-width="2"/>
<path fill-rule="evenodd" clip-rule="evenodd" d="M-111.907 -45.9784C-146.925 -62.2731 -177.273 -87.448 -200.175 -118.894C-205.95 -126.819 -213.862 -132.83 -220.835 -139.528C-227.615 -146.029 -241.067 -155.946 -240.092 -167.603C-239.386 -176.055 -225.811 -183.743 -219.402 -188.416C-211.237 -194.369 -203.089 -200.763 -199.859 -210.543C-197.968 -216.271 -196.891 -222.339 -195.16 -228.134C-194.334 -230.903 -193.535 -235.543 -191.151 -236.803C-187.214 -238.878 -180.192 -235.189 -176.07 -234.24C-162.893 -231.207 -152.183 -224.182 -142.439 -215.834C-124.439 -200.416 -109.064 -181.723 -95.1129 -162.243C-88.695 -153.28 -82.2792 -144.085 -77.4274 -133.868C-74.6808 -128.088 -74.6807 -121.443 -72.3791 -115.546C-64.9728 -96.5531 -53.6324 -80.1239 -45.4548 -61.5611C-43.0888 -56.1872 -33.577 -36.9068 -47.6617 -35.6958C-61.2971 -34.5245 -71.2431 -44.5033 -84.7968 -44.0191C-86.3387 -43.9551 -88.2186 -43.9081 -89.8166 -43.0435C-90.7686 -42.5235 -91.4973 -40.6122 -92.0955 -40.3645C-98.4949 -37.5865 -107.463 -43.9087 -111.907 -45.9784Z" stroke="#5ACEF2" stroke-width="2"/>
</g>
<mask id="mask1_793_1375" style="mask-type:alpha" maskUnits="userSpaceOnUse" x="-757" y="253" width="1145" height="488">
<rect x="-757" y="253" width="1145" height="488" fill="white"/>
</mask>
<g mask="url(#mask1_793_1375)">
<path fill-rule="evenodd" clip-rule="evenodd" d="M228.131 824.919C228.084 811.854 209.318 797.161 201.302 789.586C185.452 774.604 168.967 760.769 152.634 746.713C136.302 732.657 119.926 718.639 104.352 703.207C94.2404 693.19 82.3588 681.908 75.5008 667.604C60.8913 637.122 106.954 641.649 118.886 640.982C149.239 639.279 184.055 640.056 212.507 624.182C229.492 614.706 236.265 598.814 232.617 575.651C231.441 568.118 227.96 559.45 230.909 552.111C234.057 544.273 241.3 539.751 247.311 536.718C269.237 525.668 294.447 524.387 317.646 523.001C342.661 521.476 367.912 521.922 392.751 521.804C403.284 521.755 414.283 516.851 424.313 512.865C437.462 507.641 450.454 501.774 463.494 496.1C492.181 483.648 521.741 470.533 552.092 467.371C571.099 465.389 591.873 468.068 606.638 485.302C614.052 493.955 617.932 506.818 622.218 518.245C627.406 532.05 632.389 545.988 637.912 559.575C655.705 603.336 681.109 646.099 722.342 648.248C728.58 648.572 734.706 647.517 740.914 647.318C744.868 647.196 748.386 648.435 749.856 653.796C753.551 667.242 741.937 688.469 737.175 699.138C726.748 722.491 714.99 744.797 703.976 767.681C696.688 782.816 684.075 803.498 683.943 821.886C683.825 838.27 700.639 850.113 709.793 858.183C718.371 865.739 733.912 876.312 734.853 891.683C735.308 899.136 731.516 905.312 727.557 910.105C720.616 918.488 712.621 924.402 706.377 933.965C696.139 949.656 687.585 971.245 688.975 992.388C689.939 1007.04 696.389 1016.63 704.593 1025.8C708.041 1029.66 710.839 1032.39 711.022 1038.65C711.316 1048.59 708.311 1059.11 705.836 1068.33C696.982 1101.31 684.407 1133.21 670.418 1162.99C663.428 1177.87 655.876 1192.71 646.607 1205.41C640.537 1213.74 632.351 1223.66 623.091 1223.65C612.371 1223.65 601.027 1218.64 590.606 1214.89C571.143 1207.88 551.916 1199.78 532.765 1191.47C488.476 1172.24 444.603 1151.46 401.147 1129.12C370.537 1113.36 339.278 1097.57 310.5 1076.61C304.887 1072.5 299.59 1067.7 294.679 1062.28C289.432 1056.6 282.921 1054.05 276.319 1052.15C235.342 1040.37 190.449 1049.42 149.301 1055.09C138.857 1056.52 128.413 1057.97 117.939 1058.97C108.935 1059.84 98.1559 1062.32 89.4049 1058.59C72.1615 1051.26 87.2355 1024.22 93.6084 1013.21C116.046 974.423 144.995 941.609 171.827 908.109C184.584 892.155 197.439 876.243 209.503 859.387C215.785 850.623 228.172 836.373 228.131 824.919Z" stroke="#5BE7C3" stroke-width="2"/>
<path fill-rule="evenodd" clip-rule="evenodd" d="M235.863 822.713C228.986 808.888 216.919 798.669 206.903 789.052C192.49 775.208 177.623 762.133 162.98 748.681C149.134 735.961 135.259 723.095 122.437 708.649C114.618 699.84 104.808 689.305 101.104 676.276C93.071 648.036 136.288 652.32 146.957 651.581C173.481 649.753 203.553 649.334 228.092 634.466C243.414 625.18 249.709 609.782 246.441 588.405C245.311 581.008 243.276 574.694 245.853 567.336C248.832 558.82 255.686 553.51 261.969 549.763C281.651 538.021 304.916 535.526 326.251 533.451C348.292 531.306 371.257 529.794 392.589 531.363C401.12 531.988 410.939 528.442 419.381 525.723C432.371 521.533 445.229 516.7 458.154 512.206C484.422 503.066 511.373 494.26 538.7 493.258C558.429 492.535 578.999 496.458 595.413 511.62C612.047 526.995 619.428 550.829 628.652 573.486C644.584 612.658 666.101 660.284 702.959 668.56C708.548 669.817 713.919 669.135 719.503 669.444C722.374 669.6 725.642 670.095 727.098 673.763C730.878 683.284 720.52 700.693 717.035 707.987C707.404 728.142 696.576 747.31 686.484 767.077C678.468 782.772 668.308 800.212 665.207 818.817C661.445 841.394 686.028 857.458 694.673 873.355C709.66 900.922 681.265 916.629 667.266 929.772C651.191 944.862 637.921 972.39 652.332 995.737C657.845 1004.66 664.628 1009.98 667.09 1021.64C670.94 1039.86 668.028 1060.68 664.904 1078.69C660.198 1105.76 652.75 1132.55 642.625 1157.02C635.371 1174.53 623.337 1202.01 605.714 1199.95C593.851 1198.57 581.791 1193.55 570.239 1189.11C552.943 1182.46 535.864 1174.89 518.876 1167.02C479.663 1148.9 440.881 1128.93 402.861 1106.96C376.92 1091.97 304.557 1030.69 299.113 1028.51C282.878 1021.99 264.42 1023.14 247.682 1024.15C225.418 1025.49 203.265 1028.96 181.13 1032.18C170.593 1033.7 160.003 1035.57 149.411 1036.32C141.871 1036.85 131.97 1037.31 125.366 1031.63C112.476 1020.55 126.837 995.2 132.776 984.475C150.97 951.595 173.984 923.122 195.564 894.009C206.153 879.716 216.905 865.445 226.518 850.005C230.395 843.77 240.114 831.252 235.863 822.713Z" stroke="#5ACEF2" stroke-width="2"/>
<path fill-rule="evenodd" clip-rule="evenodd" d="M245.377 815.627C226.595 787.961 200.672 767.385 178.299 744.279C167.07 732.679 155.77 720.762 146.085 706.945C141.047 699.76 134.756 690.674 133.785 680.658C131.191 653.865 170.143 657.488 181.802 656.471C204.343 654.497 229.807 653 250.257 639.327C262.751 630.969 268.903 617.25 266.568 599.219C265.533 591.219 263.921 584.423 266.568 576.567C269.251 568.609 274.839 562.993 280.497 558.784C296.759 546.676 316.967 542.806 335.276 539.922C356.754 536.563 378.393 535.251 400.019 535.998C418.96 536.642 437.81 529.4 456.303 524.626C480.803 518.306 505.747 512.786 530.817 513.62C550.616 514.283 570.572 519.491 587.498 533.331C604.698 547.427 615.039 568.525 624.362 591.291C638.456 625.708 656.021 671.827 686.941 684.898C691.438 686.803 695.629 687.013 700.267 687.344C702.52 687.504 705.429 687.554 706.546 690.598C709.234 697.927 699.296 712.137 696.523 717.09C687.67 732.9 678.073 747.998 669 763.598C660.529 778.163 651.303 793.34 646.041 810.407C637.668 837.589 664.438 853.483 663.688 879.385C663.22 895.466 651.335 906.997 641.924 914.975C630.336 924.785 613.651 931.234 607.851 949.136C603.53 962.47 610.31 970.23 615.53 980.349C624.377 997.492 624.98 1020.73 624.059 1040.58C622.818 1067.39 617.968 1094.6 609.713 1119.25C605.971 1130.43 601.389 1142.05 594.642 1150.73C588.322 1158.86 582.339 1160.95 573.893 1159.28C548.034 1154.18 521.926 1139.95 497.129 1127.24C465.974 1111.27 435.248 1093.64 405.439 1073.8C385.113 1060.27 364.328 1045.96 346.487 1027.27C341.838 1022.4 337.076 1017.1 333.676 1010.67C331.105 1005.84 330.014 1001.85 325.682 999.096C312.841 990.924 294.98 993.061 281.221 993.911C259.221 995.263 237.328 998.863 215.463 1002.11C202.705 1004.01 178.67 1010 168.482 995.629C159.688 983.217 170.299 962.055 175.72 951.121C189.431 923.47 207.069 899.203 223.434 874.215C230.934 862.764 238.728 851.224 244.922 838.492C246.504 835.246 249.039 830.945 249.474 827.002C249.963 822.484 247.683 819.036 245.377 815.627Z" stroke="#5BE7C3" stroke-width="2"/>
<path fill-rule="evenodd" clip-rule="evenodd" d="M246.992 822.063C229.637 797.601 208.728 777.505 190.097 754.614C181.743 744.35 173.306 733.584 166.941 721.063C163.517 714.33 159.881 705.855 160.825 697.486C163.534 673.467 195.571 675.636 208.514 674.229C227.746 672.163 249.84 670.081 266.845 657.13C277.985 648.647 282.162 636.118 280.082 619.961C277.849 602.629 282.841 590.047 294.202 580.378C308.445 568.266 326.424 563.328 342.961 559.821C362.885 555.615 383.062 553.751 403.246 554.251C422.875 554.739 441.892 550.476 461.391 547.704C487.245 544.033 513.928 542.222 539.49 549.748C561.746 556.302 581.849 570.744 596.918 593.078C612.659 616.388 620.451 645.757 633.232 671.545C641.204 687.63 652.32 708.909 667.216 715.161C672.184 717.247 681.238 714.433 677.27 724.693C675.002 730.56 670.758 735.707 667.404 740.504C661.986 748.255 656.388 755.792 650.878 763.436C639.136 779.731 626.56 796.373 617.759 815.669C606.67 839.963 623.154 858.66 621.145 883.293C620.065 896.549 612.953 907.129 605.428 915.441C600.56 920.824 595.233 925.487 589.794 929.837C584.114 934.382 577.392 937.843 572.439 943.719C565.379 952.08 568.444 961.977 569.768 972.786C572.097 991.781 572.609 1011.08 571.291 1030.23C569.679 1053.72 565.899 1077.87 557.937 1099.21C554.839 1107.52 550.915 1116.32 545.088 1121.89C539.261 1127.46 533.233 1127.08 526.556 1125.4C506.75 1120.45 486.986 1108.91 468.198 1097.98C444.683 1084.3 421.63 1069.01 399.616 1051.61C384.419 1039.6 369.173 1026.63 356.46 1010.34C352.762 1005.6 349.244 1000.53 346.4 994.865C344.447 990.98 343.399 985.966 340.57 983.046C331.715 973.93 313.94 976.652 303.556 977.182C282.832 978.238 262.436 983.259 241.739 984.479C230.443 985.146 212.753 986.824 204.457 974.36C196.656 962.644 203.722 944.191 208.384 932.902C217.547 910.705 229.858 890.929 240.892 870.296C245.427 861.805 250.399 852.922 253.337 843.226C255.949 834.587 251.44 828.334 246.992 822.063Z" stroke="#5ACEF2" stroke-width="2"/>
<path fill-rule="evenodd" clip-rule="evenodd" d="M251.261 822.465C237.447 800.939 220.793 781.831 206.879 759.956C198.735 747.145 184.709 725.608 191.007 707.547C197.917 687.7 222.004 687.16 235.927 685.561C252.498 683.657 271.959 681.057 286.14 668.665C290.626 664.747 294.447 659.562 296.066 652.732C297.8 645.422 295.904 639.026 295.657 631.709C295.14 616.359 302.212 604.035 311.57 595.572C324.797 583.606 341.336 577.948 356.957 574.004C374.656 569.556 392.648 567.362 410.677 567.456C427.907 567.532 444.954 567.037 462.201 566.466C484.757 565.705 507.629 566.934 529.509 574.697C551.062 582.35 570.658 596.691 586.05 617.786C601.066 638.371 611.198 663.533 620.071 689.162C625.106 703.709 633.612 725.448 645.622 732.796C650.962 736.066 656.203 735.841 650.524 744.346C643.373 755.056 633.736 763.649 625.453 772.809C613.505 786.027 601.258 799.504 591.229 815.22C584.824 825.255 581.971 834.994 582.411 847.988C582.752 857.886 584.298 867.682 583.517 877.619C581.685 900.941 567.51 916.935 554.977 931.828C546.915 941.407 539.552 948.713 535.402 962.339C530.493 978.443 528.433 995.963 525.153 1012.68C521.549 1031.05 517.388 1050.15 509.522 1066.32C502.521 1080.72 494.006 1087.17 481.262 1083.29C461.384 1077.25 441.791 1062.36 424.144 1048.58C406.183 1034.56 388.53 1018.8 373.646 999.53C365.61 989.125 360.126 976.908 352.989 965.731C344.013 951.698 323.706 957.012 311.638 958.2C291.604 960.172 228.567 974.929 234.384 927.134C236.812 907.185 246.373 888.773 253.365 871.169C256.263 863.863 260.458 855.096 261.113 846.724C261.827 837.606 255.414 828.945 251.261 822.465Z" stroke="#FF8062" stroke-width="2"/>
<path fill-rule="evenodd" clip-rule="evenodd" d="M258.555 824.289C247.998 804.782 235.364 786.354 226.306 765.285C220.43 751.641 214.66 733.411 222.24 718.974C230.795 702.683 249.661 698.885 263.523 696.809C277.805 694.672 294.855 692.874 306.528 680.521C310.241 676.586 313.303 671.28 313.873 664.927C314.422 658.832 312.871 652.738 313.385 646.533C314.537 632.599 321.056 621.118 329.462 612.791C354.327 588.158 391.336 582.68 421.336 582.037C436.353 581.717 451.807 583.397 466.921 584.6C486.532 586.162 506.174 589.514 524.877 597.593C564.644 614.765 591.299 652.848 609.915 700.237C615.773 715.154 620.257 731.293 629.438 743.28C634.171 749.47 633.137 753.915 628.298 759.56C620.733 768.382 611.504 775.124 603.107 782.487C591.164 792.959 578.965 803.586 568.402 816.13C561.122 824.776 555.954 833.107 554.385 846.073C553.265 855.318 553.527 864.738 552.854 874.039C551.573 891.71 547.186 909.247 539.421 923.905C533.251 935.522 525.906 946.081 518.314 956.149C508.445 969.256 500.098 982.572 492.603 998.129C482.666 1018.72 468.704 1056.71 445.299 1046.65C419.485 1035.56 395.29 1007.38 378.728 980.07C373.166 970.901 368.601 959.657 361.1 952.896C349.87 942.79 338.476 943.144 325.12 943.186C305.123 943.243 261.61 948.869 261.14 910.047C260.955 894.666 266.091 880.123 268.55 865.328C271.323 848.758 265.765 837.582 258.555 824.289Z" stroke="#F1B170" stroke-width="2"/>
<path fill-rule="evenodd" clip-rule="evenodd" d="M266.417 826.03C255.976 800.607 232.561 758.831 250.369 730.56C259.777 715.62 276.415 710.006 290.373 706.66C301.606 703.953 315.152 702.937 323.639 691.464C329.877 683.029 327.108 670.754 329.498 660.194C332.464 647.104 339.272 636.393 347.639 628.342C371.018 605.842 403.525 598.937 431.65 597.468C460.859 595.945 493.043 603.067 520.529 616.767C554.8 633.854 580.475 666.209 598.431 707.181C601.744 714.745 604.755 722.506 607.935 730.161C610.072 735.296 613.241 740.263 614.926 745.664C617.73 754.67 614.426 762.032 609.129 767.902C601.509 776.352 592.149 782.366 583.462 788.708C571.583 797.386 559.439 805.909 548.389 816.091C540.963 822.943 533.19 830.324 530.533 842.211C528.719 850.319 528.343 858.906 528.407 867.303C528.548 885.308 527.819 899.867 521.334 916.357C510.663 943.428 494.254 967.771 476.918 988.025C463.313 1003.92 441.786 1028.61 421.963 1017.99C404.178 1008.47 393.774 985.691 382.057 967.276C376.36 958.323 369.96 950.147 362.44 943.779C352.96 935.751 344.035 932.382 332.802 931.069C313.897 928.857 285.39 928.282 279.546 898.897C277.388 888.052 278.62 876.819 277.488 865.834C276.01 851.309 271.685 838.854 266.417 826.03Z" stroke="#5BE7C3" stroke-width="2"/>
<path fill-rule="evenodd" clip-rule="evenodd" d="M277.275 826.972C269.839 799.154 260.071 764.096 278.03 739.372C286.729 727.395 298.965 720.699 310.807 715.696C319.288 712.11 332.755 711.055 337.955 700.03C341.774 691.917 342.303 680.725 345.758 672.033C350.505 660.083 357.697 650.24 366.134 642.535C388.115 622.456 416.744 614.698 442.852 612.476C499.581 607.656 557.303 646.048 587.659 709.214C596.71 728.043 608.394 748.083 593.767 767.319C577.797 788.305 553.739 798.136 534.679 813.048C527.396 818.741 518.115 825.585 514.052 835.893C511.608 842.089 511.441 849.863 511.329 856.684C511.035 874.057 509.922 889.68 504.531 905.891C496.205 930.942 482.929 954.054 467.885 972.986C454.765 989.494 436.054 1008.89 416.999 996.993C402.39 987.847 393.124 968.436 381.772 954.127C369.14 938.19 353.517 927.452 336.36 922.205C319.67 917.114 301.365 913.68 292.569 892.051C289.552 884.631 286.4 875.025 285.269 866.813C283.443 853.273 280.769 839.948 277.275 826.972V826.972Z" stroke="#FF8062" stroke-width="2"/>
<path fill-rule="evenodd" clip-rule="evenodd" d="M289.382 827.165C285.942 799.075 285.559 769.785 301.542 747.646C309.001 737.317 318.43 729.979 327.964 723.331C334.979 718.439 342.224 714.313 347.463 706.293C352.317 698.868 356.007 690.246 360.693 682.626C366.875 672.528 374.272 663.787 382.6 656.738C403.474 639.102 428.868 630.854 453.162 627.993C464.922 626.602 477.679 625.878 489.36 629.669C500.641 633.326 511.796 639.11 522.169 645.853C544.219 660.175 563.33 681.148 577.183 707.665C586.683 725.853 591.819 743.539 579.518 761.99C565.649 782.788 543.905 794.263 525.982 807.762C513.689 817.02 499.912 826.095 497.616 845.769C495.787 861.424 494.302 876.282 489.572 891.08C482.531 912.907 472.179 932.679 459.13 949.223C447.196 964.295 432.099 977.084 415.029 969.034C401.505 962.645 391.011 948.331 379.195 938.098C366.027 926.668 351.558 920.367 336.323 915.299C322.631 910.728 309.739 903.702 300.889 888.786C299.078 885.739 297.176 882.42 295.779 879.01C293.997 874.659 294.136 870.347 293.786 865.47C292.874 852.6 290.937 839.879 289.382 827.165Z" stroke="#F1B170" stroke-width="2"/>
<path fill-rule="evenodd" clip-rule="evenodd" d="M302.73 824.871C303.024 798.189 307.976 772.973 321.538 752.18C327.336 743.285 334.26 735.958 340.64 727.807C345.776 721.236 350.631 715.13 356.538 709.715C370.55 696.893 381.937 680.301 396.828 668.884C416.705 653.62 439.474 645.183 462.067 641.809C473.099 640.161 484.496 639.585 495.657 641.447C505.243 643.046 514.423 648.659 522.94 654.402C539.632 665.652 555.839 681.641 566.677 701.87C590.571 746.467 543.461 778.892 519.281 797.88C508.161 806.615 491.169 816.731 486.614 834.033C483.358 846.393 481.375 858.963 477.181 870.942C465.917 903.111 443.051 940.946 412.579 935.909C399.54 933.757 387.656 925.015 375.484 919.146C362.95 913.101 350.014 909.731 336.987 906.034C324.812 902.58 315.108 897.665 307.244 884.489C303.485 878.196 303.818 870.663 303.482 862.943C302.936 850.263 302.598 837.51 302.73 824.871Z" stroke="#5BE7C3" stroke-width="2"/>
<path fill-rule="evenodd" clip-rule="evenodd" d="M314.885 821.452C319.781 781.178 337.962 737.211 364.696 713.822C396.143 686.31 430.211 663.142 467.783 656.482C485.202 653.393 504.284 651.874 520.721 661.973C533.23 669.654 547.761 681.135 554.645 697.281C571.488 736.773 534.025 768.212 512.681 786.483C501.189 796.319 486.562 805.904 477.9 820.267C472.876 828.595 470.31 839.612 466.253 848.759C453.959 876.477 433.721 898.834 408.511 902.832C396.855 904.679 385.113 902.394 373.546 900.578C361.704 898.72 349.715 897.711 337.948 895.117C328.554 893.046 317.483 889.539 314.023 876.511C309.66 860.095 312.888 837.898 314.885 821.452Z" stroke="#5ACEF2" stroke-width="2"/>
<path fill-rule="evenodd" clip-rule="evenodd" d="M326.805 814.983C333.944 777.119 349.063 740.185 374.479 717.581C387.957 705.595 403.603 697.321 418.625 689.146C435.652 679.881 453.442 672.69 471.612 669.122C494.236 664.679 530.877 660.673 542.697 694.078C554.428 727.235 524.783 756.581 507.252 773.304C496.012 784.017 483.983 793.85 473.244 805.562C467.421 811.911 462.935 819.248 458.008 826.695C444.388 847.328 424.972 863.663 405.182 872.383C386.001 880.836 362.273 884.579 342.027 881.785C333.29 880.585 327.046 876.533 324.404 865.016C320.743 849.005 323.853 830.624 326.805 814.983Z" stroke="#F1B170" stroke-width="2"/>
<path fill-rule="evenodd" clip-rule="evenodd" d="M338.649 804.785C345.741 771.448 361.04 740.998 383.354 720.99C408.368 698.56 440.577 686.096 470.182 679.758C485.918 676.391 520.018 667.264 528.039 693.387C536.06 719.509 512.873 745.253 499.527 759.424C483.33 776.598 465.867 793.179 448.425 808.588C433.27 821.985 417.1 835.682 400.685 846.028C391.427 851.897 381.784 856.69 371.868 860.348C364.526 863.035 355.189 867.043 347.492 865.043C328.076 859.991 335.256 820.725 338.649 804.785Z" stroke="#FF8062" stroke-width="2"/>
<path fill-rule="evenodd" clip-rule="evenodd" d="M353.268 794.802C368.83 731.756 418.136 700.749 465.609 689.942C476.641 687.433 507.565 678.388 513.731 697.647C519.707 716.319 500.703 738.464 491.806 748.956C464.238 781.466 430.177 805.571 397.902 829.452C387.828 836.906 369.658 853.081 357.162 845.62C343.593 837.503 350.044 807.875 353.268 794.802Z" stroke="#5ACEF2" stroke-width="2"/>
<path fill-rule="evenodd" clip-rule="evenodd" d="M369.209 782.666C382.743 736.238 422.106 709.61 458.297 700.831C467.162 698.683 489.674 691.996 496.388 704.952C502.601 716.937 487.774 734.303 482.227 741.204C469.878 756.571 455.242 769.23 440.784 781.398C427.415 792.656 413.902 804.195 399.835 813.716C392.426 818.728 378.53 829.422 370.11 821.683C361.046 813.358 366.204 792.976 369.209 782.666Z" stroke="#5ACEF2" stroke-width="2"/>
<path fill-rule="evenodd" clip-rule="evenodd" d="M-65.9388 860.642C-66.3116 830.898 -78.5081 799.985 -72.4847 769.678C-67.5386 744.786 -42.6378 742.708 -27.6997 731.43C-15.8291 722.471 -9.09243 706.6 -2.67278 691.372C3.09522 677.7 8.27615 663.618 14.3524 650.171C18.2858 641.478 25.04 624.408 33.5702 624.1C41.7364 623.803 49.2246 637.105 53.9681 644.968C60.1529 655.218 65.6362 666.145 71.642 676.559C81.7631 694.124 93.9067 707.125 107.812 719.43C123.635 733.431 139.72 746.954 156.066 759.999C168.101 769.632 180.218 779.193 191.787 789.777C199.043 796.419 215.058 808.88 215.132 821.124C215.167 826.966 210.896 833.436 208.016 838.107C203.144 846.012 197.59 853.239 192.019 860.311C181.642 873.484 170.825 886.059 160.126 898.786C146.239 915.305 132.974 931.553 120.765 950.305C108.143 969.716 96.0848 989.766 83.7797 1009.54C75.4462 1022.94 67.1215 1037.99 55.1012 1046.21C40.0456 1056.48 27.6877 1045.65 12.462 1045.52C-0.635633 1045.41 0.330108 1006.07 -1.33425 995.133C-3.00447 984.061 -6.68543 973.754 -8.11202 962.656C-9.89085 948.802 -9.91434 934.628 -10.3517 920.626C-10.883 903.498 -11.0944 887.193 -25.2164 880.662C-33.2535 876.951 -41.948 876.171 -50.2668 873.948C-55.6562 872.506 -65.8214 870.039 -65.9388 860.642Z" stroke="#FF8062" stroke-width="2"/>
<path fill-rule="evenodd" clip-rule="evenodd" d="M-59.4996 855.353C-60.8725 830.42 -68.9835 798.507 -61.3135 772.77C-54.7607 750.776 -34.2672 747.925 -20.4677 736.371C-9.07589 726.842 -4.00471 711.247 1.68972 695.928C6.25819 683.639 10.6885 671.231 15.8743 659.334C19.6961 650.567 25.5317 635.766 33.478 633.952C40.6217 632.32 48.2829 645.387 52.2928 652.035C58.143 661.74 63.1466 672.279 68.3148 682.598C77.3959 700.723 86.6946 717.022 99.9855 730.337C113.335 743.709 127.94 753.707 142.701 764.113C154.249 772.255 165.737 780.634 176.709 790.034C184.882 797.032 196.632 805.99 200.371 818.47C203.332 828.342 188.318 844.726 183.891 850.508C174.777 862.397 165.12 873.558 155.445 884.65C143.651 898.167 131.48 909.988 121.064 925.406C102.434 952.973 86.8621 987.303 62.8908 1007.79C48.4328 1020.15 32.3432 1023.31 16.2624 1021.46C9.89475 1020.73 8.36605 1009.08 7.56348 1002.28C6.2288 990.989 6.06123 979.504 5.03523 968.167C4.07391 957.555 1.9396 947.473 0.219811 937.067C-1.52056 926.523 -2.00857 915.721 -3.29033 905.105C-4.08408 898.514 -4.86901 890.845 -8.34094 885.546C-11.9334 880.061 -17.8601 877.763 -23.04 876.017C-32.7679 872.769 -58.5295 872.948 -59.4996 855.353Z" stroke="#5BE7C3" stroke-width="2"/>
<path fill-rule="evenodd" clip-rule="evenodd" d="M-51.2122 844.915C-53.5211 822.028 -56.7536 793.523 -47.3474 772.437C-39.6589 755.196 -23.2612 751.476 -11.549 740.242C-1.80748 730.9 1.87207 716.042 6.70754 702.235C10.6753 690.91 14.6637 679.535 19.4727 668.758C23.1199 660.585 27.8201 649.503 35.0615 646.652C41.2529 644.215 48.2473 655.129 51.6798 660.562C57.5241 669.82 62.289 680.194 67.0215 690.43C74.763 707.18 81.8868 725.072 92.9048 738.697C103.611 751.918 116.329 759.722 129.286 768.497C139.209 775.219 149.072 782.201 158.422 790.218C165.602 796.37 174.499 803.66 178.24 813.897C181.476 822.725 173.17 833.175 169.019 839.402C162.166 849.681 154.56 859.11 147.06 868.578C138.965 878.792 130 888.214 122.168 898.679C105.696 920.701 92.5371 945.084 72.2364 961.956C59.0889 972.885 41.397 982.813 25.8553 981.028C14.6784 979.741 15.4137 947.68 14.3402 937.436C12.5754 920.686 9.16645 903.087 3.75155 887.658C-0.898625 874.437 -11.949 870.36 -22.1141 867.394C-28.482 865.533 -35.1558 864.528 -41.3148 861.65C-48.4445 858.315 -50.2445 854.508 -51.2122 844.915Z" stroke="#5ACEF2" stroke-width="2"/>
<path fill-rule="evenodd" clip-rule="evenodd" d="M-43.482 834.188C-44.8567 814.838 -44.5476 791.957 -35.6427 775.219C-27.8388 760.558 -13.9441 756.698 -4.06185 745.149C3.65085 736.139 6.68 721.447 10.8278 709.531C15.897 694.962 23.0003 668.053 35.7881 662.57C47.6839 657.473 60.1243 690.033 64.4311 699.742C71.2488 715.109 76.951 731.962 85.22 746.153C92.341 758.371 101.882 765.125 112.008 772.383C124.92 781.653 144.522 792.645 151.426 810.711C156.571 824.173 139.839 844.187 134.125 853.514C128.149 863.258 123.648 874.807 117.481 884.207C107.749 899.04 91.9789 910.983 78.9586 920.096C66.3004 928.961 49.8623 938.774 35.5025 938.189C26.0648 937.808 24.2691 918.916 22.2555 909.688C19.3706 896.57 15.5349 884.814 7.29525 875.892C-1.09158 866.809 -10.9768 862.529 -21.3683 858.783C-26.7025 856.874 -32.7872 855.385 -37.5591 851.529C-42.8314 847.333 -42.9521 841.625 -43.482 834.188Z" stroke="#F1B170" stroke-width="2"/>
<path fill-rule="evenodd" clip-rule="evenodd" d="M-34.0631 823.034C-33.9868 806.317 -31.0379 788.491 -22.2938 775.597C-15.0111 764.856 -3.61157 761.266 3.36017 750.286C8.8824 741.594 11.6934 729.39 15.3905 719.296C19.9122 706.926 26.3059 685.316 37.5499 681.023C48.5239 676.843 58.2304 700.646 62.4381 710.064C68.5999 723.874 73.5881 738.512 79.8058 752.285C84.6766 763.089 90.6331 770.053 98.5643 777.017C107.875 785.197 120.865 794.258 125.838 807.791C129.424 817.589 120.744 833.246 117.593 841.878C115.48 847.675 113.547 853.564 112.484 859.848C111.657 864.741 111.575 869.27 109.177 873.472C103.142 884.041 89.9084 885.421 80.9296 888.904C69.0049 893.528 56.3524 898.782 43.8732 899.785C36.2031 900.412 32.2888 891.252 27.9109 884.809C22.7379 877.191 15.414 871.713 9.01737 865.965C0.575582 858.366 -8.61151 853.64 -18.1155 848.8C-22.4024 846.615 -27.4376 844.473 -30.7591 840.13C-34.2274 835.628 -34.0895 829.067 -34.0631 823.034Z" stroke="#FF8062" stroke-width="2"/>
<path fill-rule="evenodd" clip-rule="evenodd" d="M-24.1706 813.108C-22.655 799.069 -17.9319 785.65 -9.95441 775.725C-3.8391 768.106 4.28234 763.816 9.19044 754.66C13.7637 746.126 16.9506 736.422 20.7279 727.297C24.7254 717.651 30.6645 701.527 39.8845 698.902C49.8211 696.075 57.4755 712.34 61.7139 721.354C67.0685 732.746 71.1366 745.002 75.9243 756.786C79.5311 765.569 84.1319 773.602 89.5736 780.617C95.2806 788.012 103.02 795.095 105.907 805.264C108.46 814.271 103.684 825.167 102.841 834.299C101.939 844.057 103.52 854.305 98.5203 862.683C88.2107 879.961 62.3366 876.757 47.5448 877.127C32.9497 877.508 21.2155 866.935 9.40486 856.877C1.60358 850.236 -6.52079 844.613 -14.5189 838.425C-22.6726 832.112 -25.5041 825.464 -24.1706 813.108Z" stroke="#5ACEF2" stroke-width="2"/>
<path fill-rule="evenodd" clip-rule="evenodd" d="M-14.9798 805.074C-10.4978 784.735 3.50069 773.925 13.508 758.554C21.6961 745.97 27.8357 719.911 41.6255 716.464C57.2816 712.552 66.6541 747.08 72.0971 760.403C78.1368 775.179 88.8935 787.198 93.3667 802.84C95.7179 811.05 93.6988 818.71 92.4468 826.916C91.0743 835.927 90.0427 845.139 85.305 852.392C75.9795 866.665 57.7665 866.566 44.6497 866.958C31.0715 867.366 19.0598 857.586 8.24131 847.824C-3.23258 837.486 -19.5705 825.933 -14.9798 805.074Z" stroke="#5ACEF2" stroke-width="2"/>
<path fill-rule="evenodd" clip-rule="evenodd" d="M-7.47286 799.558C-2.4225 785.067 8.19036 773.286 16.802 762.165C23.9898 752.893 31.7222 734.229 42.6814 732.898C55.5619 731.329 63.3684 751.26 68.4365 763.48C73.4247 775.489 80.6124 788.168 83.3744 801.348C86.2548 815.077 78.5846 833.567 71.2695 843.282C63.1108 854.116 49.7626 858.118 38.309 857.686C26.3166 857.247 15.313 848.293 6.23061 839.007C-3.47935 829.079 -13.3462 816.381 -7.47286 799.558Z" stroke="#FF8062" stroke-width="2"/>
</g>
</svg>
