<svg width="25" height="49" viewBox="0 0 25 49" fill="none" xmlns="http://www.w3.org/2000/svg">
<path d="M24.783 15.3143V7.65842C24.783 6.81284 24.0972 6.12726 23.2511 6.12726H21.7191V1.53375C21.7191 0.68816 21.0333 0.0025787 20.1871 0.0025787C18.0183 0.0025787 14.6968 -0.163553 10.7977 2.1711C8.37396 1.45001 6.65979 1.53375 4.86748 1.53375C4.02136 1.53375 3.33552 2.21933 3.33552 3.06492V6.12726H1.80355C0.957426 6.12726 0.271584 6.81284 0.271584 7.65842V15.3143C0.271584 21.5501 4.95796 26.7123 10.9953 27.4681V47.4688C10.9953 48.3144 11.6812 49 12.5273 49C13.3734 49 14.0593 48.3144 14.0593 47.4688V42.1097H16.3572C21.0032 42.1097 24.783 38.3319 24.783 33.6883V31.3915C24.783 30.546 24.0972 29.8604 23.2511 29.8604H19.4212C17.386 29.8604 15.5171 30.5853 14.0593 31.7903V27.4674C20.0877 26.7212 24.783 21.5847 24.783 15.3143ZM21.7191 15.3143C21.7191 18.0393 20.5134 20.5004 18.6077 22.1879C18.6378 21.9422 18.6552 21.6926 18.6552 21.4389C18.6552 17.5614 17.2048 14.0165 14.8188 11.3159C16.8416 9.93633 19.24 9.18959 21.7191 9.18959V15.3143ZM18.6552 3.06492V6.43617C18.3721 6.49378 18.0909 6.55952 17.8121 6.63292C16.8183 5.52101 15.6848 4.57369 14.4473 3.8082C15.7849 3.31938 17.205 3.06492 18.6552 3.06492ZM6.39945 4.59609C9.44299 4.59609 12.3986 5.70685 14.6972 7.82915C13.9386 8.22046 13.2112 8.67665 12.5228 9.1939C10.7416 7.85547 8.66035 6.89562 6.39945 6.43512V4.59609ZM3.33552 15.3143V9.18959C10.0933 9.18959 15.5912 14.6846 15.5912 21.4389C15.5912 23.15 14.1775 24.5443 12.4468 24.4998C7.0648 24.367 3.33552 20.0933 3.33552 15.3143ZM19.4212 32.9227H21.7191V33.6883C21.7191 36.6433 19.3138 39.0474 16.3572 39.0474H14.0593V38.2818C14.0593 35.3268 16.4647 32.9227 19.4212 32.9227Z" fill="white"/>
</svg>
